<?xml version="1.0" encoding="UTF-8" standalone="no"?>
<!-- Created with Inkscape (http://www.inkscape.org/) -->

<svg
   xmlns:dc="http://purl.org/dc/elements/1.1/"
   xmlns:cc="http://creativecommons.org/ns#"
   xmlns:rdf="http://www.w3.org/1999/02/22-rdf-syntax-ns#"
   xmlns:svg="http://www.w3.org/2000/svg"
   xmlns="http://www.w3.org/2000/svg"
   xmlns:sodipodi="http://sodipodi.sourceforge.net/DTD/sodipodi-0.dtd"
   xmlns:inkscape="http://www.inkscape.org/namespaces/inkscape"
   width="297mm"
   height="210mm"
   viewBox="0 0 297 210"
   version="1.1"
   id="svg8"
   inkscape:version="0.92.4 (5da689c313, 2019-01-14)"
   sodipodi:docname="Logo.svg">
  <defs
     id="defs2" />
  <sodipodi:namedview
     id="base"
     pagecolor="#ffffff"
     bordercolor="#666666"
     borderopacity="1.0"
     inkscape:pageopacity="0.0"
     inkscape:pageshadow="2"
     inkscape:zoom="0.7"
     inkscape:cx="-3.3794577"
     inkscape:cy="515.44927"
     inkscape:document-units="mm"
     inkscape:current-layer="layer1"
     showgrid="false"
     inkscape:window-width="1366"
     inkscape:window-height="684"
     inkscape:window-x="0"
     inkscape:window-y="30"
     inkscape:window-maximized="1" />
  <metadata
     id="metadata5">
    <rdf:RDF>
      <cc:Work
         rdf:about="">
        <dc:format>image/svg+xml</dc:format>
        <dc:type
           rdf:resource="http://purl.org/dc/dcmitype/StillImage" />
        <dc:title></dc:title>
      </cc:Work>
    </rdf:RDF>
  </metadata>
  <g
     inkscape:label="Layer 1"
     inkscape:groupmode="layer"
     id="layer1"
     transform="translate(0,-87)">
    <path
       style="opacity:0;fill:#000000;fill-opacity:0;stroke-width:0.26458332"
       id="path10"
       d="m 41.407737,169.52867 c 1.555403,0.0806 3.116381,-0.12202 4.643167,-0.40907 1.894023,-0.46812 3.59056,-1.43212 5.348915,-2.23403 0.244335,-0.12221 1.464175,-0.73011 1.703763,-0.85891 0.273989,-0.1473 1.081056,-0.61611 0.811242,-0.46129 -10.838177,6.21871 -6.661026,3.96863 -4.391139,2.38421 1.442421,-1.22858 2.876706,-2.45463 4.405611,-3.57662 1.554102,-1.01187 2.95093,-2.17229 4.160515,-3.5753 1.047607,-1.24224 2.056924,-2.51279 3.040076,-3.80614 0.98408,-1.2665 1.717857,-2.69952 2.56422,-4.05754 1.128069,-1.86002 2.188604,-3.75885 3.313155,-5.62128 1.194231,-2.21368 2.308172,-4.46474 3.302904,-6.77463 0.769242,-1.66157 1.553493,-3.31522 2.32097,-4.97799 0.696167,-1.33647 1.187852,-2.73829 1.568845,-4.19092 0.501316,-1.63315 1.065635,-3.23886 1.420185,-4.91236 0.353441,-1.74804 0.962012,-3.42858 1.421492,-5.14905 0.288047,-1.65373 0.556094,-3.26704 1.13361,-4.84919 0.08673,-0.23802 0.173469,-0.47603 0.260202,-0.71405 0,0 7.126364,-3.32232 7.126364,-3.32232 v 0 c -0.08871,0.2427 -0.177413,0.48541 -0.26612,0.72811 -0.05263,0.13326 -0.55594,1.4016 -0.598445,1.5334 -0.339583,1.05296 -0.283732,2.17567 -0.586505,3.23993 -0.411961,1.72348 -1.041831,3.38501 -1.432989,5.11303 -0.326448,1.68633 -0.808214,3.32596 -1.390626,4.94224 -0.372332,1.49308 -0.759888,2.96462 -1.502463,4.32979 -0.820261,1.65323 -1.54265,3.35457 -2.411595,4.98473 -1.001106,2.33255 -2.116452,4.60326 -3.255748,6.87065 -1.117565,1.84805 -2.184392,3.72146 -3.246932,5.60139 -0.843743,1.37077 -1.618768,2.78141 -2.508226,4.12078 -1.011333,1.29336 -1.990416,2.608 -3.065725,3.85079 -1.188045,1.46532 -2.462662,2.77696 -4.094641,3.76283 -1.552974,1.08184 -3.035691,2.2472 -4.404611,3.55658 -3.456228,2.78634 -7.548536,4.7209 -11.514407,6.69634 -1.7677,0.84933 -3.55368,1.72117 -5.498614,2.08039 -1.591672,0.23419 -3.189266,0.38953 -4.800411,0.36278 0,0 6.423961,-4.66728 6.423961,-4.66728 z"
       inkscape:connector-curvature="0"
       inkscape:export-xdpi="96"
       inkscape:export-ydpi="96" />
    <path
       style="opacity:0;fill:#000000;fill-opacity:0;stroke-width:0.26458332"
       id="path12"
       d="m 120.41645,103.20896 c -0.52357,1.95747 -0.7635,3.96178 -0.92449,5.97643 -0.10857,2.77214 -0.72842,5.48842 -1.40305,8.16845 -0.57661,2.21454 -0.8894,4.48954 -1.49602,6.69753 -0.30444,1.10809 -0.91189,2.86646 -1.27191,3.93979 -2.00868,5.37586 -5.11055,10.23917 -7.90073,15.22814 -2.82797,4.99137 -6.41473,9.46844 -10.10292,13.83823 -3.036245,3.77722 -6.634152,7.04524 -10.331601,10.15788 -2.980055,2.56714 -6.323629,4.66517 -9.679082,6.6994 -4.801942,2.84532 -9.64229,5.91245 -15.023433,7.57884 -1.496989,0.35354 -3.023275,0.5798 -4.542936,0.81846 0,0 6.234824,-4.68353 6.234824,-4.68353 v 0 c 1.490017,-0.24525 2.994724,-0.45389 4.442942,-0.89462 1.241388,-0.42597 1.164693,-0.37572 2.409444,-0.90478 2.480849,-1.05445 9.867452,-4.92703 -0.649666,0.83488 3.388963,-2.00073 6.764001,-4.08856 9.787895,-6.61737 3.749781,-3.05983 7.380073,-6.31263 10.453174,-10.06665 3.72436,-4.33958 7.384185,-8.76816 10.245529,-13.74217 0.99799,-1.78043 1.96417,-3.57871 2.97505,-5.35185 1.78464,-3.13038 3.65565,-6.23057 4.81356,-9.66817 0.0967,-0.29494 1.14509,-3.47688 1.25042,-3.85529 0.61225,-2.19955 0.8839,-4.46992 1.43983,-6.68053 0.64716,-2.63195 1.30072,-5.29549 1.38841,-8.0155 0.13977,-1.99829 0.30097,-4.0069 0.77176,-5.95955 0,0 7.113,-3.49802 7.113,-3.49802 z"
       inkscape:connector-curvature="0"
       inkscape:export-xdpi="96"
       inkscape:export-ydpi="96" />
    <path
       style="opacity:0;fill:#000000;fill-opacity:0;stroke-width:0.26458332"
       id="path821"
       d="m 8.9858234,163.01211 c 1.8493606,1.1073 3.7353266,2.16189 5.6144516,3.22089 1.633966,0.75914 3.157975,1.73917 4.775032,2.52879 0.695514,0.33963 1.873444,0.80713 2.588592,1.09938 0.607129,0.15068 1.206772,0.33559 1.821384,0.45203 1.082849,0.20515 5.068556,0.71457 5.943433,0.83616 3.783465,0.52584 7.556143,1.02591 11.354175,1.43797 7.121592,0.70381 14.279642,0.89046 21.431004,0.97756 4.105288,0.0588 8.26394,0.006 12.294074,-0.87329 2.114264,-0.4611 2.985693,-0.81794 5.011216,-1.5044 -1.437024,1.14346 5.567934,-2.74818 4.247472,-1.92739 -1.462759,0.90925 -2.95458,1.77768 -4.495104,2.54786 -0.576439,0.28819 1.08507,-0.69907 1.592313,-1.09661 0.918538,-0.7199 1.655704,-1.54285 2.461011,-2.37912 2.527067,-2.63478 3.198945,-5.71299 3.661818,-9.20694 0.203324,-2.58373 0.420886,-5.19107 0.210269,-7.78272 -0.119533,-1.47085 -0.313322,-2.32005 -0.579334,-3.75902 -0.445569,-2.61443 -1.310304,-5.0366 -2.786726,-7.23385 -0.871575,-1.26308 -1.877174,-2.32525 -3.347765,-2.82271 -1.11506,-0.26583 -2.272054,-0.21783 -3.410048,-0.23328 -0.493879,0.0569 -1.072867,0.0896 -1.541939,0.28098 -0.232407,0.0948 -0.867262,0.50561 -0.647033,0.38518 2.035807,-1.11322 4.008548,-2.34696 6.094171,-3.3638 0.253527,-0.12361 -0.375401,0.42281 -0.536638,0.65423 -0.182642,0.26215 -0.328131,0.54832 -0.492197,0.82248 -1.306123,2.54642 -2.084141,5.32185 -2.94823,8.03956 -1.044567,3.35801 -1.451949,6.84773 -1.670519,10.34243 -0.152244,3.43015 -0.216805,6.87309 -0.05311,10.30388 0.10397,2.72479 1.582758,4.81514 3.2328,6.85379 1.644939,1.90271 2.829886,3.24854 5.237329,4.08332 0.28157,0.0901 0.56314,0.18012 0.844712,0.27018 0,0 -6.420231,4.35415 -6.420231,4.35415 v 0 c -0.288806,-0.10136 -0.577612,-0.20271 -0.866418,-0.30407 -0.739698,-0.3257 -1.068737,-0.431 -1.751571,-0.90245 -1.396838,-0.96442 -2.413709,-2.36876 -3.56303,-3.59114 -1.791043,-2.12941 -3.370937,-4.4039 -3.455746,-7.29136 -0.137599,-3.46684 0.03448,-6.93782 0.08264,-10.40546 0.194908,-3.55208 0.584287,-7.07832 1.594467,-10.50606 0.810641,-2.71866 1.535988,-5.47939 2.676273,-8.08135 0.04147,-0.0842 0.75923,-1.58709 0.885158,-1.67312 3.490378,-2.38442 5.762535,-4.71694 9.611929,-4.85466 1.22374,-0.008 2.464774,-0.006 3.620077,0.45667 1.499447,0.72036 2.578571,1.90606 3.483525,3.29079 1.474766,2.33701 2.357402,4.8628 2.725452,7.61351 0.692908,3.88486 0.908858,7.79359 0.49718,11.72949 -0.3913,3.48969 -0.985627,6.94541 -3.443913,9.63235 -0.61055,0.65797 -1.79532,1.97328 -2.473556,2.54391 -0.509246,0.42844 -1.04453,0.83111 -1.615061,1.17373 -4.085709,2.45361 -7.949224,4.93468 -12.415015,6.50101 -2.103379,0.65746 -2.814119,0.94456 -5.006297,1.36083 -4.032682,0.76578 -8.160732,0.75396 -12.247729,0.68287 -7.127076,-0.13113 -14.254925,-0.34952 -21.347705,-1.11703 -3.830331,-0.41723 -7.64767,-0.92894 -11.476231,-1.3585 -0.594857,-0.0667 -5.492487,-0.53742 -6.326975,-0.67069 -0.682861,-0.10905 -1.348448,-0.30733 -2.022671,-0.461 -2.558575,-1.07788 -4.990417,-2.39251 -7.4470116,-3.68252 -1.922875,-1.08274 -3.846137,-2.15944 -5.8456169,-3.09629 0,0 6.6414649,-4.29715 6.6414649,-4.29715 z"
       inkscape:connector-curvature="0" />
    <path
       style="opacity:0;fill:#000000;fill-opacity:0;stroke-width:0.26458332"
       id="path823"
       d="m 110.7367,189.24163 c -0.86479,-3.08759 -2.19471,-6.01714 -3.19477,-9.06447 -1.47929,-4.12938 -2.72924,-8.33466 -4.14597,-12.48522 -1.05212,-2.83133 -1.73928,-5.75633 -2.06287,-8.75442 -0.0271,-0.38173 -0.0542,-0.76346 -0.0813,-1.1452 0,0 6.82985,-3.53191 6.82985,-3.53191 v 0 c 0.0186,0.37645 0.0372,0.75289 0.0557,1.12934 0.23799,2.97225 0.78944,5.89631 1.75368,8.72568 1.35081,4.17224 2.63167,8.37029 4.13214,12.4913 1.05588,3.09615 2.41125,6.06775 3.74248,9.05345 0,0 -7.02899,3.58145 -7.02899,3.58145 z"
       inkscape:connector-curvature="0"
       inkscape:export-xdpi="96"
       inkscape:export-ydpi="96" />
    <flowRoot
       xml:space="preserve"
       id="flowRoot849"
       style="fill:black;stroke:none;stroke-opacity:1;stroke-width:1px;stroke-linejoin:miter;stroke-linecap:butt;fill-opacity:1;font-family:OpenDyslexic;font-style:normal;font-weight:normal;font-size:40px;line-height:125%;letter-spacing:0px;word-spacing:0px;-inkscape-font-specification:OpenDyslexic;font-stretch:normal;font-variant:normal;"><flowRegion
         id="flowRegion851"
         style="-inkscape-font-specification:OpenDyslexic;font-family:OpenDyslexic;font-weight:normal;font-style:normal;font-stretch:normal;font-variant:normal;"><rect
           id="rect853"
           width="354.28571"
           height="127.14286"
           x="77.14286"
           y="422.27225"
           style="-inkscape-font-specification:OpenDyslexic;font-family:OpenDyslexic;font-weight:normal;font-style:normal;font-stretch:normal;font-variant:normal;" /></flowRegion><flowPara
         id="flowPara855"></flowPara></flowRoot>    <text
       xml:space="preserve"
       style="font-style:normal;font-weight:normal;font-size:50.79999924px;line-height:125%;font-family:Sans;letter-spacing:0px;word-spacing:0px;fill:#000000;fill-opacity:1;stroke:none;stroke-width:0.26458332px;stroke-linecap:butt;stroke-linejoin:miter;stroke-opacity:1"
       x="41.754963"
       y="192.46645"
       id="text859"
       inkscape:export-xdpi="96"
       inkscape:export-ydpi="96"><tspan
         sodipodi:role="line"
         id="tspan857"
         x="41.754963"
         y="192.46645"
         style="font-style:normal;font-variant:normal;font-weight:normal;font-stretch:normal;font-size:50.79999924px;font-family:OpenDyslexic;-inkscape-font-specification:OpenDyslexic;stroke-width:0.26458332px">101</tspan></text>
    <text
       xml:space="preserve"
       style="font-style:normal;font-weight:normal;font-size:10.58333302px;line-height:125%;font-family:Sans;letter-spacing:0px;word-spacing:0px;fill:#000000;fill-opacity:1;stroke:none;stroke-width:0.26458332px;stroke-linecap:butt;stroke-linejoin:miter;stroke-opacity:1"
       x="46.668648"
       y="141.43967"
       id="text863"
       inkscape:export-xdpi="96"
       inkscape:export-ydpi="96"><tspan
         sodipodi:role="line"
         id="tspan861"
         x="46.668648"
         y="141.43967"
         style="font-style:normal;font-variant:normal;font-weight:normal;font-stretch:normal;font-size:50.79999924px;font-family:OpenDyslexic;-inkscape-font-specification:OpenDyslexic;stroke-width:0.26458332px">MS</tspan></text>
    <path
       style="fill:#000000;fill-opacity:1;fill-rule:nonzero;stroke:none;stroke-width:0.26458332px;stroke-linecap:butt;stroke-linejoin:miter;stroke-opacity:1"
       id="path865"
       d="m 52.612247,147.34956 c 2.48798,0.0786 4.97775,0.081 7.46672,0.0951 4.60727,0.0317 9.2145,0.0474 13.82185,0.0328 4.53483,-0.009 9.06964,-0.001 13.60447,-0.0108 3.62532,-0.0135 7.25063,-0.028 10.87597,-0.0355 2.612143,-0.0165 5.224213,-0.0232 7.836383,-0.0235 1.90853,-0.006 3.81696,-0.0251 5.7255,-0.0234 1.39909,-0.003 2.79816,-0.0121 4.19725,-0.0133 1.08465,-0.001 2.16931,-0.005 3.25397,-0.01 0.80845,-0.003 1.61691,-0.005 2.42536,-0.005 0.84252,0.004 1.68511,0.007 2.52761,-8e-4 0.97069,-2.2e-4 1.94131,0.0125 2.91202,0.0161 1.2659,0.003 2.53183,0.002 3.79773,-0.002 0.728,-0.003 0.37081,-0.002 1.07158,-0.005 0,0 -4.50048,3.26979 -4.50048,3.26979 v 0 c -0.69162,-0.003 -0.33898,-0.002 -1.05793,-0.005 -1.26386,-0.004 -2.52774,-0.005 -3.79161,-0.002 -0.98543,0.004 -1.97079,0.0162 -2.95621,0.0161 -0.84172,-0.008 -1.68353,-0.005 -2.52526,-8e-4 -0.80374,-5.3e-4 -1.60748,-0.002 -2.41122,-0.005 -1.07587,-0.005 -2.15174,-0.008 -3.22762,-0.01 -1.38688,-0.001 -2.77373,-0.01 -4.1606,-0.0133 -1.88703,0.002 -3.77395,-0.0178 -5.66095,-0.0234 -2.590643,-2.6e-4 -5.181163,-0.007 -7.771753,-0.0235 -3.59279,-0.007 -7.18555,-0.0219 -10.77831,-0.0355 -4.52495,-0.01 -9.04988,-0.002 -13.57483,-0.0108 -4.6375,-0.0148 -9.27488,0.002 -13.91229,0.0329 -2.57622,0.0144 -5.15311,0.0186 -7.72842,0.0951 0,0 4.54107,-3.29929 4.54107,-3.29929 z"
       inkscape:connector-curvature="0"
       inkscape:export-xdpi="96"
       inkscape:export-ydpi="96" />
  </g>
</svg>
