<?xml version="1.0" encoding="UTF-8" standalone="no"?>
<!-- Created with Inkscape (http://www.inkscape.org/) -->

<svg
   xmlns:dc="http://purl.org/dc/elements/1.1/"
   xmlns:cc="http://creativecommons.org/ns#"
   xmlns:rdf="http://www.w3.org/1999/02/22-rdf-syntax-ns#"
   xmlns:svg="http://www.w3.org/2000/svg"
   xmlns="http://www.w3.org/2000/svg"
   xmlns:sodipodi="http://sodipodi.sourceforge.net/DTD/sodipodi-0.dtd"
   xmlns:inkscape="http://www.inkscape.org/namespaces/inkscape"
   width="297mm"
   height="210mm"
   viewBox="0 0 148.5 105"
   version="1.1"
   id="svg8"
   inkscape:version="0.92.4 (5da689c313, 2019-01-14)"
   sodipodi:docname="Logo_03.svg">
  <defs
     id="defs2" />
  <sodipodi:namedview
     id="base"
     pagecolor="#fffff0"
     bordercolor="#666666"
     borderopacity="1.0"
     inkscape:pageopacity="0"
     inkscape:pageshadow="2"
     inkscape:zoom="0.49497475"
     inkscape:cx="351.36589"
     inkscape:cy="372.28904"
     inkscape:document-units="mm"
     inkscape:current-layer="layer1"
     showgrid="false"
     inkscape:window-width="1366"
     inkscape:window-height="684"
     inkscape:window-x="0"
     inkscape:window-y="30"
     inkscape:window-maximized="1"
     scale-x="0.5" />
  <metadata
     id="metadata5">
    <rdf:RDF>
      <cc:Work
         rdf:about="">
        <dc:format>image/svg+xml</dc:format>
        <dc:type
           rdf:resource="http://purl.org/dc/dcmitype/StillImage" />
        <dc:title></dc:title>
      </cc:Work>
    </rdf:RDF>
  </metadata>
  <g
     inkscape:label="Layer 1"
     inkscape:groupmode="layer"
     id="layer1"
     transform="translate(0,-87)">
    <path
       style="fill:#ffffff;stroke-width:0.15975061"
       d="m 13.57941,173.22127 c -0.98634,-0.0971 -1.982589,-0.12497 -2.94953,-0.38859 -0.608841,-0.166 -1.1708053,-0.48519 -1.8221166,-0.78647 -1.4034179,-0.59561 -2.0973626,-1.26657 -3.2148673,-2.69227 -0.750527,-0.9575 -2.1716302,-3.58662 -2.1716302,-4.01761 0,-0.13647 -0.057999,-0.24812 -0.1288504,-0.24812 -0.070869,0 -0.2719704,-0.54944 -0.4468992,-1.22098 -0.4053558,-1.55617 -0.3999174,-3.41075 0.017895,-6.10478 0.8535723,-5.50375 2.6758111,-9.65124 6.0145276,-13.68932 1.2730521,-1.53972 3.1284461,-3.12866 4.1659181,-3.56764 1.883012,-0.79676 3.168019,0.26217 3.380831,2.78605 0.07761,0.92044 -0.4944,1.98537 -1.168351,2.17515 -0.222155,0.0626 -0.441478,0.19166 -0.487382,0.28688 -0.04587,0.0952 -0.838143,0.6513 -1.760527,1.23571 -0.922389,0.58442 -1.863554,1.23283 -2.091487,1.44092 -0.227932,0.20808 -0.455963,0.37834 -0.506734,0.37834 -0.342676,0 -3.4878864,3.68582 -4.1412556,4.85307 -1.1800207,2.10812 -1.7778915,4.64782 -1.6980048,7.21294 0.060359,1.93815 0.5014588,3.24867 1.5919866,4.72985 0.8390467,1.13962 1.3607847,1.5095 3.0153051,2.13766 0.2659665,0.10203 0.7440743,0.29102 1.2518347,0.38941 0.521056,0.10096 1.105426,0.27066 1.648621,0.30778 0.591115,0.0404 1.133476,-0.058 1.49245,-0.10166 0.329795,-0.0348 0.660335,-0.0792 1.076066,-0.17506 0.290239,-0.0669 0.608218,-0.15898 0.928173,-0.29046 0.31806,-0.13069 0.638073,-0.30034 0.934741,-0.52299 1.694927,-1.27205 3.548025,-3.70832 3.879859,-5.10084 0.603648,-2.53317 0.714754,-5.60227 0.309731,-8.5558 -0.129608,-0.94513 -0.267045,-1.96261 -0.305406,-2.26107 -0.271789,-2.11435 -0.905206,-6.44239 -1.019209,-6.96408 -0.07609,-0.3482 -0.168925,-0.95869 -0.206289,-1.35664 -0.03736,-0.39794 -0.161458,-1.57822 -0.275754,-2.62283 -0.268578,-2.45471 -0.531356,-7.10614 -0.505842,-8.95382 0.02262,-1.63707 -0.1189,-2.85129 -0.31426,-2.69649 -0.07223,0.0572 -0.296808,0.44316 -0.499057,0.85762 -0.20225,0.41446 -0.691712,1.23447 -1.087695,1.82227 -0.731338,1.08558 -1.313558,2.11413 -2.677321,4.72972 -0.80687,1.54753 -1.733055,2.66511 -2.764459,3.33574 -0.552358,0.35914 -0.765945,0.39644 -1.7264913,0.30147 -1.1933517,-0.11798 -1.6417315,-0.34623 -2.736975,-1.39328 -1.2435456,-1.18882 -1.9225097,-2.91168 -2.3496253,-5.96218 -0.2929606,-2.09231 -0.3122022,-9.60097 -0.029611,-11.55988 0.4496039,-3.11684 1.2349243,-7.00911 1.6457011,-8.15661 0.2314936,-0.64666 0.7675421,-2.19323 1.1912185,-3.43682 1.5549083,-4.56399 3.369919,-7.83212 3.721589,-8.42743 0.159989,-0.25949 0.336667,-0.55132 0.708553,-1.043184 0.362145,-0.52155 1.151703,-1.555873 1.862756,-2.320477 1.023057,-1.100101 1.544439,-1.515295 2.49865,-1.989736 1.056567,-0.525327 1.357974,-0.597017 2.434926,-0.579136 1.358582,0.02257 1.833961,0.210911 2.829132,1.120978 0.58317,0.533295 0.911,0.849496 1.582451,2.647001 l 0.343375,0.932759 0.109236,0.456455 0.103506,0.50129 0.06733,0.53791 0.02932,0.82872 -0.01516,0.75028 c -0.0059,0.2938 -0.03486,0.77717 -0.07698,1.26972 -0.03835,0.44825 -0.11584,0.98355 -0.194969,1.3097 -0.230252,0.41204 -0.544349,0.90563 -0.839665,1.32835 -0.284951,0.40788 -0.679593,0.69532 -0.990711,0.86054 -0.430567,0.22866 -0.527544,0.21922 -0.981467,-0.0955 -0.381504,-0.26454 -0.544815,-0.53259 -0.673252,-1.10501 -0.269009,-1.19908 -0.83475,-2.27841 -1.637144,-3.12341 -1.400824,-1.47519 -2.82736,-2.01943 -4.288596,-1.63612 -2.482392,0.65118 -4.0208565,3.00771 -5.4847389,8.4012 -0.2147876,0.79135 -0.604032,2.01004 -0.8649914,2.70817 -0.2609593,0.69814 -0.4744705,1.37449 -0.4744705,1.503 0,0.12852 -0.060109,0.37501 -0.1335778,0.54776 -0.2154466,0.50657 -0.8164884,3.80911 -0.9789315,5.37888 -0.2698136,2.60739 -0.3584555,7.55295 -0.1579256,8.81081 0.2316977,1.4533 0.8994526,3.20756 1.5527693,4.07927 0.8470206,1.13016 1.9782816,2.20056 2.563107,2.42521 1.0053424,0.38618 2.5744384,-0.50252 3.6024964,-2.04037 0.98813,-1.47811 3.082496,-5.612 4.067886,-8.02925 0.527229,-1.29333 1.115867,-2.73815 1.30809,-3.21071 0.396863,-0.97567 0.843651,-1.14331 1.218487,-0.45719 0.293094,0.5365 0.277735,0.83679 -0.09625,1.88128 -0.292611,0.81724 -0.313088,1.10195 -0.278074,3.8668 0.0397,3.13618 0.376788,10.71434 0.5793,13.02374 0.06543,0.74615 0.216292,1.88572 0.335244,2.53239 1.827485,9.93465 1.997698,11.29364 1.891406,15.10133 -0.100236,3.59075 -0.686985,5.8206 -1.064769,7.4534 -0.140188,0.60592 -0.50551,1.41394 -0.720036,2.01327 -0.389792,1.29419 -2.248579,3.6175 -3.369272,4.54523 -0.840853,0.69608 -1.526812,1.05075 -1.968372,0.9948 -0.116394,-0.0147 -0.842311,0.16563 -1.579477,0.093 z M 44.083338,141.9475 c -0.255369,-0.083 -0.589314,-0.29587 -0.742104,-0.47315 -0.691269,-0.80207 -0.923882,-3.85851 -0.405228,-5.3245 0.469475,-1.32697 1.332007,-2.69788 2.919132,-4.63964 l 1.497924,-1.83266 -0.604603,-0.92585 c -0.33254,-0.50922 -0.654488,-0.92584 -0.715437,-0.92584 -0.06097,0 -0.189437,0.24331 -0.285517,0.54069 -0.590176,1.82674 -3.325735,2.99648 -4.179371,1.78713 -0.307697,-0.43592 -0.403771,-0.42649 -0.945024,0.0928 -0.857971,0.8231 -1.252966,0.99419 -1.929261,0.83563 -1.635769,-0.38351 -2.176544,-2.85677 -1.354763,-6.19608 l 0.211558,-0.85968 -0.945688,0.10461 c -0.649172,0.0718 -1.158547,0.0197 -1.62456,-0.16608 -0.501569,-0.19998 -0.69142,-0.21537 -0.726913,-0.0589 -0.02641,0.11647 -0.126438,0.60051 -0.222261,1.07563 -0.09582,0.47512 -0.229004,0.90728 -0.295957,0.96033 -0.06695,0.0531 -0.121733,0.84021 -0.121733,1.74924 0,1.49863 -0.03532,1.71814 -0.378705,2.35342 -0.437095,0.80866 -0.874983,1.13992 -1.867612,1.41286 -0.872441,0.23989 -2.117694,-0.0432 -2.486135,-0.56514 -0.328057,-0.46477 -0.41034,-0.44991 -1.02705,0.1855 -0.71803,0.7398 -1.255227,0.84692 -2.033587,0.40548 -0.807302,-0.45784 -1.377456,-1.39412 -1.377456,-2.26194 0,-0.75251 -0.253568,-1.0601 -0.463016,-0.56166 -0.262691,0.62515 -1.775187,2.46045 -1.962596,2.38147 -0.101465,-0.0428 -0.203893,-0.37072 -0.22764,-0.7288 -0.03935,-0.59327 0.0029,-0.67903 0.475344,-0.9665 0.923002,-0.56155 2.00755,-2.62873 2.686881,-5.1213 0.307078,-1.12675 0.509229,-1.47933 0.663016,-1.15646 0.03806,0.0799 -0.114383,1.04059 -0.338707,2.13495 -0.431353,2.1043 -0.503068,3.56981 -0.225717,4.61257 0.125516,0.47187 0.328722,0.73675 0.797911,1.04009 0.828613,0.53572 0.999764,0.51685 1.722702,-0.18997 l 0.610584,-0.59696 0.01789,-1.54454 c 0.02128,-1.83773 0.248282,-2.56738 1.187517,-3.8167 0.617865,-0.82186 0.682351,-0.86095 1.414027,-0.85716 0.840883,0.004 1.738278,0.44218 2.164082,1.0558 0.563176,0.81158 0.88017,0.26334 0.718595,-1.24284 -0.125778,-1.17252 -0.03486,-1.32545 0.589355,-0.99107 1.024671,0.54891 3.301842,0.24594 4.144858,-0.55147 0.350329,-0.33139 0.5093,-0.38965 0.651186,-0.23868 0.311115,0.33105 0.218706,0.74532 -0.460222,2.06321 -1.221727,2.37155 -1.447648,3.7312 -0.857973,5.16353 0.373127,0.90633 0.785239,1.24291 1.526555,1.24675 0.413632,0.002 0.600273,-0.12264 0.95233,-0.63672 0.24082,-0.35167 0.437864,-0.66615 0.437864,-0.69886 0,-0.0327 -0.06468,-0.49677 -0.143749,-1.03127 -0.220914,-1.49348 0.04075,-2.69013 0.836249,-3.82452 0.82575,-1.17753 1.525675,-1.59751 2.293666,-1.37627 0.310792,0.0895 0.658563,0.14046 0.772835,0.11318 0.139523,-0.0333 0.337255,0.36625 0.602044,1.21659 0.216863,0.69641 0.552987,1.61532 0.746948,2.04204 0.380262,0.83659 1.786186,2.9323 1.967148,2.9323 0.236093,0 1.173469,-1.21777 1.941419,-2.52215 1.096812,-1.86295 1.377298,-2.50244 1.491658,-3.40089 0.05374,-0.4223 0.161236,-0.81813 0.238838,-0.87962 0.302619,-0.23979 0.374287,0.26005 0.239899,1.67329 -0.150161,1.5791 0.03527,3.0471 0.499611,3.95573 0.320887,0.62788 1.221692,0.90769 1.764211,0.548 0.229139,-0.15192 0.456126,-0.35819 0.504431,-0.45839 0.04832,-0.10019 0.179301,-0.18216 0.291113,-0.18216 0.378502,0 0.206085,0.52718 -0.323242,0.98834 -0.602202,0.52464 -1.387715,0.60197 -1.998881,0.19676 -0.455591,-0.30205 -1.071292,-1.77685 -1.241523,-2.97385 l -0.112902,-0.79388 -0.485837,0.97476 c -0.267214,0.53612 -0.92443,1.55926 -1.460496,2.27366 -0.663465,0.88418 -0.938262,1.37507 -0.860666,1.53752 0.06269,0.13125 0.333076,0.60492 0.600872,1.05262 0.267803,0.44769 0.682747,1.34307 0.922099,1.98973 0.392479,1.06039 0.434862,1.34438 0.43193,2.89417 -0.0052,2.86064 -0.590019,4.29899 -2.247425,5.52954 -0.621787,0.46165 -0.853153,0.52518 -2.045741,0.5618 -0.739557,0.0227 -1.553596,-0.0266 -1.808966,-0.10953 z m 3.869687,-1.14313 c 0.553238,-0.47404 0.795183,-0.86331 1.249421,-2.01021 0.516201,-1.30338 0.562483,-1.53786 0.553273,-2.80372 -0.0058,-0.80034 -0.114033,-1.78091 -0.257258,-2.33119 -0.290675,-1.11679 -1.712933,-3.55153 -1.962578,-3.35972 -0.465826,0.3579 -2.301366,2.63379 -2.911513,3.60997 -1.312223,2.09945 -1.608121,2.86872 -1.593065,4.14159 0.02862,2.42101 0.830344,3.30545 3.017059,3.32838 1.147862,0.012 1.258351,-0.0213 1.904661,-0.5751 z m -15.92962,-10.25869 c 0.876201,-0.50996 1.200003,-1.27178 1.123508,-2.6433 -0.03375,-0.60457 -0.167648,-1.37786 -0.297612,-1.71841 -0.291299,-0.76328 -1.07873,-1.43317 -1.68465,-1.43317 -0.769647,0 -1.658385,0.71084 -2.035406,1.62797 -0.287243,0.69874 -0.321628,0.96764 -0.242884,1.8993 0.125709,1.48732 0.314417,1.89291 1.058952,2.27597 0.820959,0.42238 1.341584,0.42029 2.078092,-0.008 z m 12.435963,-1.04903 c 0.339429,-0.27227 0.751121,-0.79414 0.914859,-1.1597 l 0.297717,-0.66466 -0.529007,-1.32508 c -0.290938,-0.7288 -0.528033,-1.41959 -0.526873,-1.53511 0.0012,-0.11551 -0.200542,-0.42865 -0.44824,-0.69588 -0.379201,-0.40909 -0.536806,-0.46813 -0.997526,-0.37368 -0.300947,0.0617 -0.699809,0.24041 -0.886367,0.39713 -0.490039,0.41167 -1.036656,1.9759 -1.130095,3.23397 -0.06707,0.903 -0.03124,1.18578 0.213255,1.68342 0.596291,1.21366 1.896792,1.39853 3.092277,0.43959 z m 34.458713,5.87011 c -0.17592,-0.6253 -0.186855,-2.12196 -0.01743,-2.38373 0.114196,-0.17641 0.443343,-0.21262 1.271245,-0.13987 l 1.117154,0.0982 -0.06445,-0.61323 c -0.03544,-0.33728 -0.195301,-2.44469 -0.355232,-4.68314 -0.914025,-12.79291 -1.60396,-19.40249 -2.074239,-19.87112 -0.321564,-0.32046 -3.986414,-0.1602 -5.607167,0.24518 -1.896156,0.47427 -4.783584,1.35166 -5.026304,1.52732 -0.351706,0.25454 -0.855275,-0.27637 -0.801525,-0.84503 0.038,-0.40224 0.164296,-0.50027 1.030926,-0.80034 3.929633,-1.36061 5.144115,-1.62607 7.936052,-1.73466 1.805591,-0.0702 2.292634,-0.14146 2.292634,-0.33533 0,-0.90439 -0.676673,-5.29634 -1.152175,-7.478203 -0.607909,-2.789415 -0.633311,-3.546081 -0.142444,-4.242745 0.147667,-0.209578 0.633084,-1.26039 1.078695,-2.335136 0.914043,-2.204532 1.244029,-2.463074 1.313307,-1.028963 0.04069,0.841909 1.684039,14.497547 1.812026,15.057137 0.06024,0.26339 0.242575,0.31666 1.08576,0.31723 1.55207,0.001 7.591691,1.0909 9.580267,1.72877 1.227136,0.39363 3.718109,1.85548 4.533257,2.66039 0.875705,0.86471 3.054114,3.69806 3.054114,3.97233 0,0.10765 0.159966,0.46462 0.355478,0.79327 1.15678,1.94444 1.81956,4.71801 1.73802,7.27311 -0.0675,2.11437 -0.59631,3.47501 -2.189811,5.63426 -2.499162,3.38648 -4.413191,4.96058 -8.730768,6.51118 -1.162237,0.41741 -2.47137,0.6377 -3.269322,0.79852 -1.418929,0.28596 -2.231955,0.29828 -4.92952,0.28664 -3.701025,-0.016 -3.727949,-0.0188 -3.838566,-0.41202 z m 12.346503,-2.72667 c 1.396761,-0.45345 2.875635,-1.0227 4.458838,-2.30458 1.906106,-1.54333 2.883744,-2.7116 3.689541,-4.40895 1.223667,-2.57756 1.312177,-5.09459 0.27351,-7.77807 -1.122355,-2.89969 -2.167031,-4.58976 -3.854293,-6.23542 -1.18511,-1.15589 -3.218219,-2.24326 -5.431789,-2.90511 -1.972354,-0.58973 -5.151681,-1.07948 -7.007612,-1.07948 h -1.686224 l 0.08246,1.22097 c 0.04535,0.67154 0.334044,5.94208 0.641536,11.71232 0.307493,5.77024 0.595808,10.91426 0.640708,11.43117 l 0.08163,0.93982 0.590416,0.0687 c 0.324734,0.0378 1.529196,0.0829 2.676586,0.10026 2.071429,0.0314 3.152572,-0.0587 4.844696,-0.7616 z m 3.412447,-6.85694 c -0.62286,-0.49154 -1.211754,-1.1642 -1.532799,-2.13024 -0.272238,-0.81918 -0.465342,-1.76658 -0.588812,-3.07494 -0.04144,-0.43904 -0.02775,-1.5331 0.05927,-2.6586 0.11109,-1.43659 0.52428,-3.06118 1.116689,-3.92621 0.494662,-0.72231 0.686996,-0.78022 1.020795,-0.30733 0.340864,0.4829 0.159913,0.62809 -0.499611,1.83354 l -0.457694,1.1722 -0.188423,0.95678 -0.05771,1.33719 c -0.01236,0.52439 0.01428,1.24097 0.04162,1.57176 0.07946,0.96127 0.09803,0.96887 0.237999,1.60515 0.123051,0.55938 0.498667,1.54559 0.802184,1.94508 0.99383,1.30808 1.086273,2.4962 0.04646,1.67562 z m -37.030988,3.85726 c -0.714848,-0.21523 -1.353604,-0.78084 -1.798632,-1.59266 -0.356438,-0.65022 -0.409931,-0.90135 -0.383491,-1.80019 0.06062,-2.06056 0.417049,-2.94989 1.552169,-3.87283 0.738461,-0.60043 1.692986,-0.68287 2.627694,-0.22694 0.972292,0.47428 1.023441,0.47611 1.470142,0.0527 0.627098,-0.59442 0.857262,-0.25992 0.506793,0.73652 -0.141325,0.40182 -0.343283,0.82243 -0.448782,0.93469 -0.142601,0.15174 -0.169258,0.48796 -0.103873,1.31037 0.125557,1.57933 -0.117863,2.56806 -0.856447,3.47871 -0.403764,0.49785 -0.784784,0.78568 -1.150152,0.86885 -0.300499,0.0684 -0.641608,0.15152 -0.757996,0.1847 -0.116393,0.0332 -0.412234,-7e-5 -0.657425,-0.0739 z m 2.017127,-1.19569 c 0.883265,-0.84548 1.172373,-1.92095 0.973493,-3.62134 -0.165504,-1.41498 -1.3456,-2.59845 -1.3456,-1.34945 0,0.74799 -0.271603,0.88466 -0.625921,0.31495 -0.163382,-0.2627 -0.487423,-0.52645 -0.720106,-0.58611 -0.354462,-0.0909 -0.527153,0.009 -1.065002,0.61598 -0.751361,0.84795 -1.047481,1.83379 -0.89676,2.98545 0.115776,0.88461 0.321663,1.30493 0.863977,1.76382 0.564949,0.47803 2.265508,0.40357 2.815919,-0.1233 z m 53.25058,0.71337 c -0.31793,-0.5182 -0.3898,-1.4146 -0.12992,-1.62053 0.09,-0.0713 0.24525,0.0249 0.3479,0.21543 0.35144,0.65238 0.48919,0.7964 0.76169,0.7964 0.65247,0 0.92438,-1.63402 0.54329,-3.2648 -0.17478,-0.74792 -1.39119,-2.52352 -1.7288,-2.52352 -0.21498,0 -0.44495,0.5496 -0.64335,1.53752 -0.28331,1.41078 -1.71514,3.29848 -2.80621,3.69967 -0.25206,0.0927 -0.57417,0.0604 -0.88043,-0.0881 -0.26561,-0.12885 -0.76992,-0.3763 -1.12066,-0.54989 l -0.63773,-0.31563 -1.16819,0.86389 c -1.08212,0.80024 -1.45853,0.94533 -1.2317,0.47477 0.0504,-0.1046 0.53835,-0.5304 1.08428,-0.94623 0.90465,-0.68905 0.98476,-0.79748 0.90404,-1.22372 -0.41564,-2.19496 -0.37036,-2.91849 0.29261,-4.67624 0.65423,-1.73457 2.03246,-2.05215 2.43772,-0.56171 0.38325,1.40956 0.0721,2.63415 -1.15534,4.54736 -0.61734,0.96224 -0.59022,1.1448 0.24566,1.65334 0.69157,0.42075 1.20965,0.35538 1.94923,-0.24596 1.19528,-0.97186 2.02161,-3.02649 1.9144,-4.76005 -0.0349,-0.56324 0.007,-0.77141 0.16476,-0.81059 0.1164,-0.029 0.73138,0.56119 1.36662,1.31154 1.27543,1.50653 1.73726,2.61571 1.73726,4.17242 0,1.48118 0.57014,1.25125 2.34499,-0.94571 0.84945,-1.05147 1.25081,-1.71114 1.55194,-2.55069 0.26841,-0.74834 0.47795,-1.11409 0.6178,-1.07838 0.22965,0.0586 0.2309,0.20988 0.0108,1.30638 -0.0799,0.39794 -0.14671,1.09909 -0.14857,1.55808 -0.006,1.5666 1.02029,2.25188 2.53618,1.69296 1.37596,-0.50733 1.45348,-0.52116 1.38319,-0.24681 -0.13012,0.50795 -1.95216,1.02576 -2.84973,0.80987 -0.69183,-0.1664 -1.30379,-0.87382 -1.41533,-1.63611 -0.0505,-0.34528 -0.13987,-0.66582 -0.19857,-0.71233 -0.0587,-0.0465 -0.32605,0.17898 -0.59414,0.50109 -0.84411,1.01419 -2.30729,2.41238 -2.67426,2.55548 -0.194,0.0756 -0.62113,0.45251 -0.94918,0.83748 -0.749,0.87895 -1.41133,0.95837 -1.86229,0.22333 z m -5.29323,-4.15983 c 0.74491,-1.16551 1.05044,-2.00564 1.05044,-2.8885 0,-1.7912 -0.96957,-1.99178 -1.75498,-0.36306 -0.66641,1.38197 -0.68007,4.08941 -0.0206,4.08941 0.10431,0 0.43064,-0.37703 0.72516,-0.83785 z m 16.95234,2.65935 c -0.55842,-0.66816 -0.59353,-0.76875 -0.58398,-1.67319 0.0117,-1.10961 0.37882,-2.14981 1.13983,-3.22978 0.92123,-1.30735 2.11637,-1.33463 3.2646,-0.0745 0.32468,0.35631 0.64969,0.60078 0.72226,0.54328 0.0726,-0.0575 0.23515,-0.69378 0.3613,-1.41397 0.50877,-2.90453 2.33208,-8.81104 2.33208,-7.55462 0,0.10867 0.17478,1.26314 -0.0156,1.74464 -0.54325,1.37449 -1.78876,4.26879 -2.0424,5.99986 -0.14185,0.96812 -0.20576,2.08185 -0.16575,2.8882 0.10053,2.02581 0.60282,2.45924 1.90983,1.64804 0.50607,-0.3141 0.60803,-0.45711 0.54807,-0.76876 -0.0405,-0.21058 -0.14486,-0.74596 -0.23187,-1.18972 -0.21908,-1.11737 -0.0633,-2.07184 0.44453,-2.72287 0.81651,-1.04684 1.66941,-0.80233 1.66941,0.47857 0,0.65071 -0.54197,2.65359 -0.91619,3.38584 -0.2192,0.4289 -0.21645,0.46384 0.0508,0.64721 1.56222,1.07194 3.68206,-2.10195 2.77005,-4.1474 -0.1109,-0.24871 -0.20388,-0.60415 -0.20663,-0.78986 -0.004,-0.26594 0.0624,-0.31219 0.31244,-0.21781 0.81599,0.30805 2.26857,0.47964 2.64314,0.31222 0.65114,-0.29102 0.7694,0.0912 0.27556,0.89063 -1.35252,2.18941 -1.33868,4.79684 0.0234,4.41328 0.59342,-0.1671 2.15934,-2.13376 2.4709,-3.10324 0.22558,-0.70195 0.82655,-1.48687 1.14746,-1.49871 0.27177,-0.01 0.21693,0.24817 -0.31745,1.49459 -0.62842,1.46578 -0.63101,1.97685 -0.0141,2.76779 0.55861,0.71619 0.68138,0.73522 1.66194,0.25753 0.40359,-0.19661 0.75982,-0.32412 0.7916,-0.28336 0.24614,0.31557 -0.88951,0.8579 -1.79644,0.8579 -0.38408,0 -0.5934,-0.14209 -0.9554,-0.64853 -0.25496,-0.35669 -0.46357,-0.80771 -0.46357,-1.00228 0,-0.64579 -0.30172,-0.60644 -0.89494,0.11672 -1.34915,1.64469 -2.00441,1.90246 -2.63801,1.03776 -0.44002,-0.60052 -0.4129,-1.85529 0.0735,-3.39917 0.19166,-0.60834 0.29657,-1.17259 0.23315,-1.2539 -0.0634,-0.0813 -0.49036,-0.16472 -0.94876,-0.18536 l -0.83345,-0.0376 -0.0705,1.28163 c -0.0557,1.01263 -0.16051,1.46822 -0.49918,2.17062 -0.64819,1.34434 -1.89802,2.00099 -2.75964,1.4499 -0.57689,-0.36897 -0.67334,-0.36433 -1.41686,0.0682 -0.79668,0.46348 -1.53673,0.46496 -1.99383,0.004 -0.19729,-0.19897 -0.38599,-0.36177 -0.41932,-0.36177 -0.0333,0 -0.31774,0.31363 -0.63203,0.69695 -0.64421,0.7857 -1.42059,1.11191 -2.64631,1.11191 -0.7239,0 -0.83886,-0.0591 -1.38365,-0.7109 z m 2.99703,-0.21058 c 0.89012,-0.6414 1.22722,-1.88655 0.85268,-3.14955 -0.11201,-0.37774 -0.22002,-0.4648 -0.51952,-0.41877 -0.31913,0.049 -0.39571,-0.0285 -0.49098,-0.49749 -0.21212,-1.04416 -1.05842,-1.23694 -1.86393,-0.42459 -0.47136,0.47537 -1.2136,2.10128 -1.21539,2.66236 -0.002,0.57696 0.34526,1.37975 0.79086,1.82912 0.51551,0.5199 1.72402,0.51937 2.44628,-0.001 z m 5.577,-3.05198 c 0.23955,-0.60609 0.35509,-1.19466 0.35509,-1.80886 0,-0.83234 -0.0282,-0.91044 -0.32813,-0.91044 -0.18046,0 -0.47676,0.20288 -0.65845,0.45083 -0.58922,0.80413 -0.53542,3.16688 0.0721,3.16688 0.11236,0 0.36408,-0.40428 0.55938,-0.89841 z m -121.260501,1.4314 c -1.126254,-0.16868 -2.584692,-0.6002 -3.2449624,-0.96009 -0.6471202,-0.35273 -1.479405,-1.49031 -1.672637,-2.28618 -0.2428486,-1.00025 0.081869,-2.36888 0.8241941,-3.47386 0.5288844,-0.78727 1.6242561,-1.27888 2.6587083,-1.19325 l 0.658726,0.0545 0.197546,1.22098 c 0.108647,0.67153 0.238273,1.22097 0.288052,1.22097 0.04978,0 0.265769,-0.45817 0.479985,-1.01816 l 0.389478,-1.01816 0.634914,0.11158 c 1.073501,0.18864 2.421025,1.59029 2.962651,3.08164 0.725474,1.99756 0.244265,3.40622 -1.354949,3.96636 -1.089945,0.38177 -1.764526,0.45197 -2.821706,0.29363 z m 107.871391,-7.10204 c -0.13967,-0.13093 -0.23116,-0.38685 -0.20332,-0.5687 0.0774,-0.50538 0.73906,-1.06208 1.09179,-0.91854 0.41651,0.16949 0.40756,1.06477 -0.0144,1.44372 -0.38261,0.3436 -0.54531,0.3517 -0.87404,0.0435 z m 24.00816,0.0427 c -0.35754,-0.267 -0.30311,-0.80699 0.12484,-1.23858 0.46533,-0.46929 0.84487,-0.47848 1.03415,-0.025 0.43321,1.0378 -0.33694,1.87747 -1.15899,1.26359 z M 25.179455,118.55548 c -0.140678,-0.21997 -0.221322,-0.72155 -0.188377,-1.17158 0.02384,-0.3259 0.647762,-0.79794 0.894312,-0.67664 0.246025,0.12104 0.53279,0.84924 0.53279,1.35294 0,0.60778 -0.929198,0.9793 -1.238725,0.49528 z m 26.587054,-0.25625 c -0.0517,-0.0663 -0.09405,-0.39004 -0.09405,-0.71937 0,-1.08245 1.019531,-1.49901 1.215735,-0.49673 0.04652,0.23775 0.04477,0.63576 -0.0041,0.88448 -0.07215,0.36856 -0.175016,0.45221 -0.556123,0.45221 -0.257177,0 -0.509923,-0.0542 -0.561655,-0.12059 z m -37.622757,-1.33616 c -1.126248,-0.16868 -2.584692,-0.60019 -3.244962,-0.96008 -0.6333,-0.3452 -1.4690061,-1.47788 -1.6749162,-2.27011 -0.1389988,-0.53482 -0.3449847,-0.87476 -0.025706,-1.90779 0.1938207,-0.62717 0.3274277,-1.13653 0.6082931,-1.42844 0.4950291,-0.51452 0.8554731,-0.884 1.4559081,-1.10779 0.433394,-0.16153 1.084413,-0.26915 1.44671,-0.23916 l 0.658726,0.0545 0.197545,1.22097 c 0.108653,0.67154 0.238273,1.22098 0.288053,1.22098 0.04978,0 0.265774,-0.45817 0.479991,-1.01816 l 0.389477,-1.01816 0.634909,0.11158 c 1.073501,0.18865 2.421024,1.59029 2.962651,3.08164 0.72548,1.99756 0.244265,3.40621 -1.35495,3.96636 -1.089939,0.38177 -1.76452,0.45197 -2.821705,0.29363 z"
       id="path91-3-6"
       inkscape:connector-curvature="0"
       sodipodi:nodetypes="csccsssssssccsssssscsscssssscccsccccccscscssccsccsccccccsscsccsccccscsscscscccsscsscccccccscccssccccccccccscccccsscccscsscccscccscccccccscsccscscccccccscccccscccccccccccccscccccsscsscccsccccccscccccccsccccccsscscccssscscssccccccsccsccsccccccsssccccccssccccccccccccccccccscccccccccscscccccccscscccccccsscccccccccccccccccsccccccccsccssccssccccccccccccccscsccccccccsccssscccccccccccccscsccccsccssccsscccccccccccccccccscccccsccccssscccssccsscccc" />
    <path
       style="fill:#999999;stroke-width:0.15975061"
       d="m 13.270959,172.90786 c -0.98634,-0.0971 -1.982589,-0.12497 -2.94953,-0.3886 -0.6088409,-0.16599 -1.170805,-0.48518 -1.8221163,-0.78646 -1.4034179,-0.59561 -2.0973628,-1.26657 -3.2148673,-2.69227 -0.750527,-0.9575 -2.1716301,-3.58662 -2.1716301,-4.01761 0,-0.13647 -0.057999,-0.24812 -0.1288505,-0.24812 -0.070869,0 -0.2719704,-0.54944 -0.4468992,-1.22098 -0.4053558,-1.55617 -0.3999174,-3.41075 0.017895,-6.10478 0.8535723,-5.50376 2.6758111,-9.65125 6.0145276,-13.68932 1.2730519,-1.53973 3.1284458,-3.12866 4.1659178,-3.56765 1.883013,-0.79675 3.16802,0.26218 3.380831,2.78606 0.07761,0.92043 -0.494399,1.98537 -1.168351,2.17515 -0.222155,0.0626 -0.441478,0.19166 -0.487381,0.28688 -0.04587,0.0952 -0.838143,0.6513 -1.760527,1.23571 -0.92239,0.58442 -1.863555,1.23283 -2.091487,1.44091 -0.227932,0.20809 -0.455964,0.37835 -0.506734,0.37835 -0.3426768,0 -3.4878871,3.68582 -4.1412563,4.85307 -1.1800207,2.10812 -1.7778915,4.64782 -1.6980048,7.21294 0.06036,1.93815 0.5014588,3.24867 1.5919866,4.72985 0.8390467,1.13962 1.3607847,1.5095 3.0153051,2.13766 0.2659665,0.10203 0.7440743,0.29102 1.2518344,0.38941 0.521056,0.10096 1.105427,0.27066 1.648621,0.30778 0.591115,0.0404 1.133476,-0.058 1.492451,-0.10166 0.329794,-0.0348 0.660334,-0.0792 1.076066,-0.17506 0.290238,-0.0669 0.608217,-0.15898 0.928172,-0.29046 0.31806,-0.13069 0.638073,-0.30034 0.934741,-0.52299 1.69493,-1.27206 3.548025,-3.70832 3.879859,-5.10084 0.603647,-2.53318 0.714755,-5.60227 0.309731,-8.5558 -0.129609,-0.94513 -0.26704,-1.96261 -0.305407,-2.26107 -0.271789,-2.11435 -0.905205,-6.44239 -1.019209,-6.96408 -0.07609,-0.3482 -0.168919,-0.95869 -0.206288,-1.35664 -0.03736,-0.39794 -0.161458,-1.57822 -0.275754,-2.62283 -0.268578,-2.45471 -0.531356,-7.10614 -0.505842,-8.95382 0.02262,-1.63707 -0.118901,-2.85129 -0.314261,-2.69649 -0.07223,0.0572 -0.296807,0.44316 -0.499057,0.85762 -0.202248,0.41446 -0.691711,1.23447 -1.087694,1.82226 -0.731338,1.08559 -1.313558,2.11414 -2.677321,4.72973 -0.80687,1.54753 -1.733054,2.66511 -2.764459,3.33573 -0.552357,0.35915 -0.7659444,0.39645 -1.726491,0.30148 -1.1933517,-0.11798 -1.6417315,-0.34623 -2.7369752,-1.39328 -1.2435454,-1.18882 -1.9225095,-2.91168 -2.3496251,-5.96218 -0.2929606,-2.09231 -0.3122022,-9.60097 -0.029611,-11.55988 0.4496039,-3.11685 1.2349243,-7.00912 1.6457011,-8.15661 0.2314937,-0.64666 0.7675419,-2.19323 1.1912185,-3.43682 1.5549083,-4.56399 3.3699187,-7.83212 3.7215897,-8.42743 0.159989,-0.25949 0.336666,-0.55132 0.708552,-1.043185 0.362145,-0.52155 1.151703,-1.555873 1.862756,-2.320477 1.023057,-1.100101 1.544439,-1.515295 2.49865,-1.989734 1.056568,-0.525329 1.357975,-0.597019 2.434926,-0.579138 1.358586,0.02257 1.833961,0.210911 2.829137,1.120978 0.583171,0.533295 0.910995,0.849496 1.582445,2.647001 l 0.34338,0.932759 0.109235,0.456452 0.103506,0.501284 0.06733,0.53792 0.02931,0.82872 -0.01514,0.75028 c -0.0059,0.2938 -0.03486,0.77717 -0.07698,1.26972 -0.03835,0.44825 -0.11584,0.98355 -0.194969,1.3097 -0.230252,0.41204 -0.544349,0.90563 -0.839664,1.32835 -0.284947,0.40788 -0.679594,0.69531 -0.990712,0.86054 -0.430567,0.22866 -0.527544,0.21922 -0.981467,-0.0955 -0.381503,-0.26454 -0.544815,-0.53259 -0.673247,-1.10502 -0.269013,-1.19907 -0.834753,-2.2784 -1.637147,-3.1234 -1.400825,-1.4752 -2.827361,-2.01943 -4.288596,-1.63612 -2.482393,0.65118 -4.0208574,3.00771 -5.4847397,8.4012 -0.2147877,0.79135 -0.6040321,2.01003 -0.8649914,2.70817 -0.2609594,0.69814 -0.4744708,1.37448 -0.4744708,1.503 0,0.12852 -0.060109,0.37501 -0.1335778,0.54776 -0.2154463,0.50657 -0.8164881,3.8091 -0.9789312,5.37888 -0.2698136,2.60739 -0.3584555,7.55295 -0.1579256,8.81081 0.2316976,1.4533 0.8994526,3.20756 1.5527692,4.07927 0.8470206,1.13016 1.9782816,2.20056 2.5631071,2.42521 1.0053422,0.38618 2.5744382,-0.50252 3.6024962,-2.04037 0.98813,-1.47811 3.082496,-5.61201 4.067886,-8.02925 0.52723,-1.29333 1.115867,-2.73815 1.308091,-3.21071 0.396862,-0.97567 0.843651,-1.14331 1.218486,-0.45719 0.293095,0.5365 0.277736,0.83679 -0.09625,1.88128 -0.29261,0.81724 -0.313088,1.10194 -0.278073,3.8668 0.0397,3.13617 0.376789,10.71434 0.5793,13.02374 0.06543,0.74615 0.216291,1.88572 0.335244,2.53239 1.827484,9.93465 1.997698,11.29364 1.891407,15.10132 -0.100237,3.59076 -0.686987,5.82061 -1.06477,7.45341 -0.140192,0.60592 -0.505513,1.41394 -0.720036,2.01326 -0.389792,1.2942 -2.248579,3.61751 -3.369272,4.54524 -0.840854,0.69608 -1.526813,1.05075 -1.968373,0.9948 -0.116394,-0.0147 -0.84231,0.16563 -1.579477,0.093 z m 30.503936,-31.27377 c -0.255369,-0.083 -0.589313,-0.29587 -0.742104,-0.47315 -0.691269,-0.80207 -0.923882,-3.85851 -0.405227,-5.3245 0.469475,-1.32697 1.332006,-2.69788 2.919126,-4.63965 l 1.497929,-1.83265 -0.604609,-0.92585 c -0.332534,-0.50922 -0.654482,-0.92585 -0.715436,-0.92585 -0.06096,0 -0.189437,0.24332 -0.285517,0.5407 -0.590171,1.82674 -3.325729,2.99648 -4.179366,1.78713 -0.307696,-0.43592 -0.40377,-0.42649 -0.945024,0.0928 -0.857977,0.8231 -1.252972,0.99418 -1.92927,0.83562 -1.635769,-0.3835 -2.176543,-2.85676 -1.354761,-6.19608 l 0.211561,-0.85967 -0.945688,0.10461 c -0.649175,0.0718 -1.158547,0.0197 -1.624563,-0.16608 -0.501569,-0.19998 -0.691422,-0.21537 -0.726913,-0.0589 -0.02642,0.11647 -0.126438,0.60051 -0.222262,1.07563 -0.09582,0.47512 -0.229004,0.90728 -0.295957,0.96033 -0.06695,0.0531 -0.121732,0.84021 -0.121732,1.74924 0,1.49863 -0.03532,1.71814 -0.378704,2.35342 -0.437098,0.80866 -0.874981,1.13992 -1.867612,1.41286 -0.872443,0.23989 -2.117697,-0.0432 -2.486131,-0.56515 -0.328064,-0.46476 -0.410346,-0.4499 -1.027051,0.18551 -0.718035,0.7398 -1.255232,0.84692 -2.033593,0.40548 -0.807295,-0.45784 -1.377455,-1.39412 -1.377455,-2.26194 0,-0.75251 -0.253568,-1.0601 -0.463016,-0.56166 -0.26269,0.62515 -1.775188,2.46045 -1.962595,2.38147 -0.101461,-0.0428 -0.203894,-0.37072 -0.227641,-0.7288 -0.03935,-0.59327 0.0029,-0.67904 0.475345,-0.9665 0.923002,-0.56155 2.007549,-2.62873 2.68688,-5.1213 0.307083,-1.12675 0.509228,-1.47933 0.663016,-1.15646 0.03806,0.0799 -0.114377,1.04059 -0.338707,2.13495 -0.431354,2.1043 -0.503069,3.56981 -0.225712,4.61257 0.125511,0.47187 0.328717,0.73675 0.797906,1.04009 0.828613,0.53572 0.999764,0.51685 1.722702,-0.18997 l 0.610584,-0.59697 0.0179,-1.54453 c 0.02128,-1.83773 0.248281,-2.56738 1.187516,-3.8167 0.617866,-0.82186 0.682352,-0.86095 1.414027,-0.85716 0.840883,0.004 1.738281,0.44218 2.164083,1.0558 0.563175,0.81158 0.880169,0.26334 0.718598,-1.24284 -0.125781,-1.17252 -0.03485,-1.32545 0.589352,-0.99107 1.024673,0.54891 3.301843,0.24593 4.144858,-0.55148 0.350332,-0.33138 0.509301,-0.38964 0.651185,-0.23867 0.31112,0.33105 0.218712,0.74532 -0.460216,2.06321 -1.221729,2.37154 -1.447651,3.7312 -0.857979,5.16352 0.373132,0.90634 0.785244,1.24292 1.526561,1.24676 0.413631,0.002 0.60027,-0.12264 0.95233,-0.63672 0.240824,-0.35167 0.437868,-0.66615 0.437868,-0.69886 0,-0.0327 -0.06468,-0.49678 -0.14375,-1.03127 -0.220914,-1.49348 0.04075,-2.69013 0.836243,-3.82452 0.825756,-1.17753 1.525682,-1.59751 2.293672,-1.37627 0.310786,0.0895 0.658563,0.14046 0.772829,0.11318 0.13953,-0.0333 0.337261,0.36625 0.602051,1.21659 0.216856,0.69641 0.552981,1.61532 0.746947,2.04204 0.380262,0.83659 1.786181,2.9323 1.967149,2.9323 0.236087,0 1.173463,-1.21777 1.941413,-2.52215 1.096811,-1.86295 1.377298,-2.50244 1.491663,-3.40089 0.05374,-0.4223 0.161231,-0.81813 0.238838,-0.87962 0.30262,-0.23979 0.374282,0.26005 0.239894,1.67329 -0.150156,1.5791 0.03527,3.0471 0.499611,3.95573 0.320887,0.62788 1.221692,0.90769 1.76421,0.548 0.229139,-0.15192 0.456133,-0.35819 0.504432,-0.45839 0.04832,-0.10019 0.179301,-0.18216 0.291119,-0.18216 0.378501,0 0.206079,0.52718 -0.323248,0.98834 -0.602202,0.52464 -1.387709,0.60196 -1.998882,0.19676 -0.45559,-0.30206 -1.071286,-1.77685 -1.241517,-2.97386 l -0.112902,-0.79388 -0.485837,0.97477 c -0.267214,0.53612 -0.924436,1.55926 -1.460496,2.27365 -0.663464,0.88418 -0.938262,1.37508 -0.860672,1.53753 0.06269,0.13125 0.333082,0.60492 0.600879,1.05262 0.267802,0.44769 0.682741,1.34307 0.922092,1.98973 0.39248,1.06039 0.434863,1.34438 0.431931,2.89417 -0.0052,2.86063 -0.590014,4.29899 -2.247425,5.52954 -0.621788,0.46165 -0.853147,0.52518 -2.045735,0.5618 -0.739563,0.0227 -1.553597,-0.0266 -1.808966,-0.10953 z m 3.869682,-1.14313 c 0.553238,-0.47404 0.795183,-0.86331 1.249421,-2.01021 0.516206,-1.30338 0.562483,-1.53787 0.553279,-2.80372 -0.0058,-0.80034 -0.114033,-1.78091 -0.257258,-2.33119 -0.290682,-1.1168 -1.712933,-3.55153 -1.962578,-3.35973 -0.465826,0.35791 -2.301373,2.6338 -2.911519,3.60998 -1.312218,2.09945 -1.608116,2.86872 -1.59306,4.14159 0.02862,2.42101 0.830344,3.30545 3.01706,3.32838 1.147862,0.012 1.258351,-0.0213 1.904655,-0.5751 z m -15.92962,-10.25869 c 0.876201,-0.50996 1.200002,-1.27178 1.123506,-2.6433 -0.03372,-0.60457 -0.167645,-1.37786 -0.297611,-1.71841 -0.291298,-0.76328 -1.078729,-1.43317 -1.684653,-1.43317 -0.769645,0 -1.658384,0.71084 -2.035405,1.62797 -0.287243,0.69874 -0.321628,0.96764 -0.242885,1.8993 0.12571,1.48732 0.314418,1.89291 1.058952,2.27597 0.82096,0.42238 1.341584,0.42029 2.078096,-0.008 z m 12.435968,-1.04903 c 0.33943,-0.27227 0.751116,-0.79414 0.914859,-1.1597 l 0.297711,-0.66466 -0.529001,-1.32508 c -0.290943,-0.7288 -0.528039,-1.41959 -0.526873,-1.53511 0.0012,-0.11551 -0.200542,-0.42866 -0.44824,-0.69588 -0.379201,-0.40909 -0.536806,-0.46813 -0.997526,-0.37368 -0.300946,0.0617 -0.699808,0.24041 -0.886366,0.39713 -0.49004,0.41167 -1.036656,1.9759 -1.130095,3.23397 -0.06707,0.903 -0.03124,1.18578 0.213254,1.68342 0.596291,1.21366 1.896792,1.39853 3.092277,0.43959 z m 34.458707,5.8701 c -0.17592,-0.62529 -0.186855,-2.12195 -0.01743,-2.38372 0.114191,-0.17641 0.443338,-0.21262 1.271239,-0.13987 l 1.117155,0.0982 -0.06445,-0.61323 c -0.03544,-0.33728 -0.195302,-2.44469 -0.355232,-4.68314 -0.914026,-12.79291 -1.60396,-19.40249 -2.074233,-19.87113 -0.32157,-0.32045 -3.98642,-0.1602 -5.607173,0.24518 -1.896156,0.47428 -4.783584,1.35167 -5.026304,1.52733 -0.351706,0.25454 -0.855275,-0.27638 -0.801526,-0.84504 0.03801,-0.40223 0.164297,-0.50027 1.030927,-0.80033 3.929633,-1.36061 5.144115,-1.62607 7.936051,-1.73466 1.805591,-0.0702 2.292635,-0.14146 2.292635,-0.33533 0,-0.90439 -0.676673,-5.29634 -1.152175,-7.478204 -0.607909,-2.789414 -0.633312,-3.546081 -0.142444,-4.242745 0.147672,-0.209578 0.633084,-1.26039 1.078695,-2.335136 0.914042,-2.204532 1.244029,-2.463075 1.313313,-1.028963 0.04069,0.841909 1.684032,14.497548 1.81202,15.057138 0.06024,0.26339 0.242575,0.31666 1.08576,0.31723 1.552075,10e-4 7.591691,1.0909 9.580266,1.72877 1.227137,0.39363 3.71811,1.85548 4.533258,2.66039 0.875705,0.8647 3.054114,3.69806 3.054114,3.97233 0,0.10765 0.159966,0.46462 0.355483,0.79327 1.156779,1.94444 1.819559,4.71801 1.738009,7.2731 -0.0675,2.11437 -0.59631,3.47502 -2.189805,5.63427 -2.499163,3.38648 -4.413191,4.96057 -8.730769,6.51118 -1.162236,0.41741 -2.471369,0.6377 -3.269321,0.79851 -1.418929,0.28597 -2.231955,0.29829 -4.92952,0.28664 -3.701025,-0.016 -3.727949,-0.0188 -3.838566,-0.41202 z m 12.346503,-2.72666 c 1.396762,-0.45345 2.875636,-1.0227 4.458838,-2.30458 1.906107,-1.54333 2.883744,-2.7116 3.689542,-4.40895 1.223665,-2.57756 1.312175,-5.09459 0.273509,-7.77807 -1.122354,-2.8997 -2.167031,-4.58976 -3.854293,-6.23542 -1.185109,-1.15589 -3.218219,-2.24327 -5.431788,-2.90511 -1.972354,-0.58973 -5.151682,-1.07948 -7.007612,-1.07948 h -1.686224 l 0.08246,1.22097 c 0.04535,0.67154 0.334043,5.94208 0.641536,11.71232 0.307492,5.77024 0.595807,10.91426 0.640708,11.43117 l 0.08163,0.93982 0.590415,0.0687 c 0.324735,0.0378 1.529197,0.0829 2.676587,0.10026 2.071429,0.0314 3.152572,-0.0587 4.844695,-0.7616 z m 3.412448,-6.85695 c -0.62286,-0.49153 -1.211754,-1.16419 -1.532799,-2.13023 -0.272238,-0.81918 -0.465342,-1.76658 -0.588812,-3.07494 -0.04144,-0.43904 -0.02775,-1.5331 0.05927,-2.6586 0.11109,-1.43659 0.52428,-3.06118 1.116689,-3.92621 0.494662,-0.72231 0.686996,-0.78022 1.020795,-0.30733 0.340863,0.4829 0.159913,0.62809 -0.499611,1.83354 l -0.457695,1.1722 -0.188423,0.95678 -0.05771,1.33719 c -0.01236,0.52439 0.01428,1.24097 0.04162,1.57176 0.07945,0.96127 0.09803,0.96887 0.237999,1.60515 0.123051,0.55938 0.498667,1.54559 0.802184,1.94508 0.99383,1.30808 1.086272,2.4962 0.04646,1.67561 z M 57.3376,129.327 c -0.714848,-0.21523 -1.353603,-0.78084 -1.798631,-1.59266 -0.356439,-0.65022 -0.409938,-0.90135 -0.383491,-1.80019 0.06062,-2.06056 0.417048,-2.94989 1.552162,-3.87283 0.738467,-0.60043 1.692992,-0.68287 2.627694,-0.22694 0.972298,0.47428 1.023442,0.47611 1.470143,0.0527 0.627097,-0.59442 0.857262,-0.25992 0.506798,0.73652 -0.14133,0.40182 -0.343282,0.82243 -0.448788,0.93469 -0.142601,0.15174 -0.169257,0.48796 -0.103873,1.31037 0.125557,1.57932 -0.117863,2.56806 -0.85644,3.47871 -0.40377,0.49785 -0.784784,0.78568 -1.15016,0.86885 -0.300498,0.0684 -0.6416,0.15152 -0.757994,0.1847 -0.116394,0.0332 -0.412234,-7e-5 -0.65742,-0.0739 z m 2.017127,-1.19569 c 0.883266,-0.84548 1.172373,-1.92095 0.973487,-3.62134 -0.165497,-1.41498 -1.345594,-2.59845 -1.345594,-1.34945 0,0.74799 -0.271604,0.88466 -0.625927,0.31495 -0.163376,-0.2627 -0.487422,-0.52645 -0.720105,-0.58611 -0.354457,-0.0909 -0.527147,0.009 -1.064997,0.61598 -0.75136,0.84795 -1.047486,1.83379 -0.896765,2.98544 0.115776,0.88462 0.321663,1.30494 0.863983,1.76383 0.564948,0.47803 2.265506,0.40357 2.815918,-0.1233 z m 53.250573,0.71337 c -0.31793,-0.5182 -0.38979,-1.4146 -0.12992,-1.62053 0.09,-0.0713 0.24525,0.0249 0.34791,0.21543 0.35143,0.65237 0.48918,0.7964 0.76169,0.7964 0.65246,0 0.92437,-1.63402 0.54328,-3.2648 -0.17477,-0.74792 -1.39119,-2.52353 -1.7288,-2.52353 -0.21498,0 -0.44495,0.5496 -0.64335,1.53753 -0.28331,1.41078 -1.71514,3.29848 -2.80621,3.69967 -0.25206,0.0927 -0.57417,0.0605 -0.88042,-0.0881 -0.26562,-0.12885 -0.76992,-0.3763 -1.12067,-0.54989 l -0.63773,-0.31564 -1.16819,0.8639 c -1.08212,0.80023 -1.45853,0.94533 -1.2317,0.47476 0.0504,-0.10459 0.53835,-0.53039 1.08428,-0.94622 0.90466,-0.68906 0.98476,-0.79748 0.90404,-1.22372 -0.41564,-2.19496 -0.37036,-2.91849 0.29261,-4.67624 0.65424,-1.73457 2.03247,-2.05215 2.43772,-0.56171 0.38326,1.40956 0.0721,2.63415 -1.15534,4.54736 -0.61734,0.96223 -0.59021,1.1448 0.24566,1.65334 0.69157,0.42075 1.20965,0.35538 1.94923,-0.24597 1.19528,-0.97185 2.02161,-3.02648 1.9144,-4.76004 -0.0349,-0.56324 0.007,-0.77141 0.16476,-0.81059 0.1164,-0.029 0.73138,0.56119 1.36662,1.31154 1.27543,1.50653 1.73726,2.61571 1.73726,4.17241 0,1.48119 0.57014,1.25126 2.34499,-0.9457 0.84945,-1.05147 1.25082,-1.71114 1.55194,-2.55069 0.26841,-0.74834 0.47795,-1.11409 0.6178,-1.07838 0.22965,0.0586 0.2309,0.20988 0.0109,1.30638 -0.0799,0.39794 -0.14672,1.09909 -0.14857,1.55808 -0.006,1.5666 1.02028,2.25188 2.53617,1.69296 1.37597,-0.50733 1.45348,-0.52116 1.38319,-0.24681 -0.13012,0.50795 -1.95216,1.02575 -2.84973,0.80987 -0.69183,-0.1664 -1.30379,-0.87382 -1.41532,-1.63611 -0.0505,-0.34528 -0.13988,-0.66582 -0.19858,-0.71233 -0.0587,-0.0465 -0.32605,0.17898 -0.59414,0.50109 -0.84411,1.01419 -2.30728,2.41238 -2.67426,2.55548 -0.194,0.0756 -0.62112,0.45251 -0.94918,0.83748 -0.749,0.87895 -1.41132,0.95837 -1.86229,0.22333 z m -5.29323,-4.15983 c 0.74491,-1.16551 1.05044,-2.00564 1.05044,-2.8885 0,-1.7912 -0.96957,-1.99178 -1.75498,-0.36306 -0.66641,1.38197 -0.68007,4.08941 -0.0206,4.08941 0.10432,0 0.43064,-0.37703 0.72517,-0.83785 z m 16.95234,2.65935 c -0.55842,-0.66816 -0.59353,-0.76876 -0.58398,-1.67319 0.0117,-1.10961 0.37882,-2.14981 1.13983,-3.22978 0.92123,-1.30735 2.11637,-1.33463 3.2646,-0.0745 0.32468,0.35631 0.64969,0.60078 0.72226,0.54328 0.0726,-0.0575 0.23515,-0.69378 0.3613,-1.41397 0.50877,-2.90453 2.33209,-8.81104 2.33209,-7.55462 0,0.10867 0.17477,1.26314 -0.0156,1.74464 -0.54325,1.37449 -1.78876,4.26879 -2.0424,5.99986 -0.14185,0.96812 -0.20576,2.08184 -0.16575,2.8882 0.10054,2.0258 0.60282,2.45924 1.90983,1.64804 0.50607,-0.3141 0.60803,-0.45711 0.54807,-0.76876 -0.0405,-0.21059 -0.14485,-0.74596 -0.23186,-1.18972 -0.21909,-1.11737 -0.0633,-2.07184 0.44452,-2.72287 0.81651,-1.04684 1.66941,-0.80233 1.66941,0.47857 0,0.65071 -0.54197,2.65359 -0.91619,3.38584 -0.2192,0.4289 -0.21645,0.46384 0.0508,0.64721 1.56221,1.07193 3.68205,-2.10195 2.77004,-4.1474 -0.1109,-0.24872 -0.20388,-0.60415 -0.20663,-0.78986 -0.004,-0.26594 0.0624,-0.31219 0.31244,-0.21781 0.81599,0.30805 2.26857,0.47964 2.64314,0.31222 0.65114,-0.29102 0.7694,0.0912 0.27556,0.89063 -1.35252,2.18941 -1.33868,4.79684 0.0234,4.41328 0.59342,-0.1671 2.15934,-2.13376 2.4709,-3.10324 0.22558,-0.70195 0.82655,-1.48688 1.14746,-1.49872 0.27177,-0.01 0.21693,0.24818 -0.31744,1.4946 -0.62843,1.46578 -0.63102,1.97685 -0.0141,2.76779 0.55861,0.71619 0.68138,0.73522 1.66194,0.25753 0.40359,-0.19661 0.75982,-0.32413 0.7916,-0.28336 0.24614,0.31557 -0.88951,0.8579 -1.79644,0.8579 -0.38408,0 -0.5934,-0.14209 -0.9554,-0.64853 -0.25496,-0.35669 -0.46357,-0.80771 -0.46357,-1.00228 0,-0.64579 -0.30172,-0.60644 -0.89494,0.11672 -1.34915,1.64469 -2.0044,1.90245 -2.63801,1.03776 -0.44002,-0.60052 -0.41289,-1.85529 0.0735,-3.39917 0.19166,-0.60834 0.29657,-1.17259 0.23316,-1.2539 -0.0634,-0.0813 -0.49037,-0.16472 -0.94877,-0.18536 l -0.83345,-0.0375 -0.0705,1.28163 c -0.0557,1.01263 -0.16052,1.46822 -0.49919,2.17062 -0.64819,1.34434 -1.89802,2.00098 -2.75964,1.4499 -0.57688,-0.36898 -0.67334,-0.36433 -1.41686,0.0682 -0.79668,0.46348 -1.53673,0.46495 -1.99383,0.004 -0.19729,-0.19897 -0.38599,-0.36177 -0.41932,-0.36177 -0.0333,0 -0.31774,0.31363 -0.63203,0.69695 -0.64421,0.7857 -1.42059,1.11191 -2.64631,1.11191 -0.7239,0 -0.83886,-0.0591 -1.38365,-0.7109 z m 2.99704,-0.21058 c 0.89011,-0.6414 1.22721,-1.88655 0.85268,-3.14956 -0.11202,-0.37773 -0.22003,-0.46479 -0.51953,-0.41876 -0.31913,0.049 -0.39571,-0.0285 -0.49098,-0.49749 -0.21212,-1.04416 -1.05842,-1.23694 -1.86393,-0.42459 -0.47136,0.47537 -1.2136,2.10128 -1.21538,2.66236 -0.002,0.57696 0.34525,1.37974 0.79085,1.82912 0.51552,0.5199 1.72402,0.51936 2.44629,-10e-4 z m 5.57699,-3.05198 c 0.23955,-0.60609 0.35509,-1.19466 0.35509,-1.80886 0,-0.83235 -0.0282,-0.91044 -0.32812,-0.91044 -0.18047,0 -0.47677,0.20288 -0.65846,0.45083 -0.58922,0.80413 -0.53542,3.16688 0.0721,3.16688 0.11236,0 0.36408,-0.40429 0.55938,-0.89841 z m -121.260502,1.4314 c -1.126254,-0.16869 -2.5846917,-0.6002 -3.2449621,-0.96009 -0.6471202,-0.35273 -1.479405,-1.49031 -1.672637,-2.28618 -0.2428488,-1.00025 0.081869,-2.36888 0.8241941,-3.47386 0.5288844,-0.78727 1.6242561,-1.27889 2.658709,-1.19325 l 0.658726,0.0546 0.197545,1.22098 c 0.108647,0.67153 0.238273,1.22097 0.288053,1.22097 0.04978,0 0.265768,-0.45817 0.479984,-1.01816 l 0.389478,-1.01816 0.634914,0.11157 c 1.073501,0.18865 2.421025,1.5903 2.962651,3.08164 0.725474,1.99757 0.244265,3.40623 -1.354949,3.96637 -1.089945,0.38177 -1.764526,0.45197 -2.821706,0.29363 z M 119.44933,118.411 c -0.13966,-0.13093 -0.23116,-0.38685 -0.20332,-0.5687 0.0774,-0.50538 0.73906,-1.06208 1.0918,-0.91854 0.4165,0.16949 0.40755,1.06476 -0.0145,1.44372 -0.38261,0.3436 -0.54532,0.3517 -0.87404,0.0435 z m 24.00816,0.0427 c -0.35754,-0.267 -0.30311,-0.80699 0.12485,-1.23858 0.46532,-0.46929 0.84486,-0.47848 1.03414,-0.025 0.43321,1.0378 -0.33694,1.87747 -1.15899,1.26359 z M 24.871004,118.24207 c -0.140673,-0.21997 -0.221322,-0.72155 -0.188376,-1.17158 0.02384,-0.3259 0.647761,-0.79794 0.894311,-0.67664 0.246024,0.12104 0.532789,0.84924 0.532789,1.35293 0,0.60779 -0.929198,0.97931 -1.238724,0.49529 z m 26.587063,-0.25625 c -0.0517,-0.0663 -0.09406,-0.39004 -0.09406,-0.71937 0,-1.08245 1.01953,-1.49901 1.215735,-0.49673 0.04652,0.23775 0.04477,0.63576 -0.0041,0.88448 -0.07215,0.36856 -0.175017,0.45221 -0.556124,0.45221 -0.257176,0 -0.509922,-0.0542 -0.561655,-0.12059 z m -37.622765,-1.33616 c -1.126248,-0.16868 -2.584692,-0.60019 -3.244963,-0.96008 -0.6332994,-0.3452 -1.4690058,-1.47788 -1.6749159,-2.27011 -0.1389988,-0.53482 -0.3449847,-0.87476 -0.025706,-1.90779 0.1938207,-0.62717 0.3274277,-1.13653 0.6082931,-1.42844 0.4950294,-0.51452 0.8554728,-0.884 1.4559078,-1.10779 0.433394,-0.16153 1.084414,-0.26915 1.44671,-0.23916 l 0.658726,0.0546 0.197546,1.22097 c 0.108653,0.67154 0.238272,1.22098 0.288052,1.22098 0.04978,0 0.265774,-0.45817 0.479991,-1.01816 l 0.389477,-1.01816 0.634909,0.11158 c 1.073501,0.18864 2.421026,1.59029 2.962652,3.08164 0.72548,1.99756 0.244266,3.40621 -1.35495,3.96636 -1.08994,0.38177 -1.76452,0.45196 -2.821706,0.29363 z"
       id="path91-3"
       inkscape:connector-curvature="0"
       sodipodi:nodetypes="csccsssssssccsssssscsscssssscccsccccccscscssccsccsccccccsscsccsccccscsscscscccsscsscccccccscccssccccccccccscccccsscccscsscccscccscccccccscsccscscccccccscccccscccccccccccccscccccsscsscccsccccccscccccccsccccccsscscccssscscssccccccsccsccsccccccsssccccccssccccccccccccccccccscccccccccscscccccccscscccccccsscccccccccccccccccsccccccccsccssccssccccccccccccccscsccccccccsccssscccccccccccccscsccccsccssccsscccccccccccccccccscccccsccccssscccssccsscccc" />
    <path
       style="fill:#000000;stroke-width:0.15975061"
       d="m 12.654053,171.96761 c -0.986341,-0.0971 -1.98259,-0.12497 -2.9495317,-0.3886 -0.6088416,-0.16599 -1.1708051,-0.48518 -1.822114,-0.78646 -1.4034182,-0.59561 -2.0973634,-1.26657 -3.214868,-2.69227 -0.750527,-0.95751 -2.1716301,-3.58662 -2.1716301,-4.01762 0,-0.13646 -0.057999,-0.24811 -0.1288505,-0.24811 -0.070869,0 -0.2719703,-0.54944 -0.4468992,-1.22098 -0.4053558,-1.55617 -0.3999173,-3.41075 0.017895,-6.10478 0.8535724,-5.50376 2.6758111,-9.65125 6.0145277,-13.68932 1.2730518,-1.53973 3.1284458,-3.12866 4.1659178,-3.56765 1.883013,-0.79676 3.16802,0.26218 3.380831,2.78605 0.07761,0.92044 -0.494399,1.98538 -1.168351,2.17516 -0.222155,0.0626 -0.441478,0.19166 -0.487381,0.28688 -0.04587,0.0952 -0.838143,0.6513 -1.760527,1.23571 -0.92239,0.58442 -1.863555,1.23283 -2.0914874,1.44091 -0.2279321,0.20809 -0.4559633,0.37835 -0.5067341,0.37835 -0.3426763,0 -3.4878869,3.68582 -4.1412558,4.85307 -1.1800208,2.10812 -1.7778916,4.64782 -1.6980049,7.21294 0.06036,1.93815 0.5014588,3.24867 1.5919867,4.72985 0.8390464,1.13962 1.3607847,1.5095 3.015305,2.13766 0.2659683,0.10203 0.7440755,0.29102 1.2518326,0.38941 0.5210599,0.10096 1.1054269,0.27066 1.6486249,0.30778 0.591113,0.0404 1.133473,-0.058 1.492449,-0.10166 0.329794,-0.0348 0.660332,-0.0792 1.076063,-0.17506 0.290239,-0.0669 0.608218,-0.15898 0.928178,-0.29046 0.318057,-0.13069 0.638072,-0.30034 0.934738,-0.52299 1.69493,-1.27206 3.548025,-3.70832 3.879859,-5.10084 0.603648,-2.53318 0.714755,-5.60227 0.309731,-8.5558 -0.129608,-0.94513 -0.267039,-1.96261 -0.305405,-2.26107 -0.27179,-2.11435 -0.905206,-6.44239 -1.01921,-6.96408 -0.07609,-0.3482 -0.168919,-0.95869 -0.206289,-1.35664 -0.03736,-0.39795 -0.161458,-1.57822 -0.275754,-2.62283 -0.268577,-2.45471 -0.531355,-7.10614 -0.505842,-8.95382 0.02262,-1.63707 -0.1189,-2.85129 -0.31426,-2.69649 -0.07223,0.0572 -0.296808,0.44316 -0.499057,0.85762 -0.20225,0.41446 -0.691712,1.23447 -1.087695,1.82226 -0.731338,1.08559 -1.313558,2.11414 -2.677321,4.72973 -0.80687,1.54753 -1.733055,2.66511 -2.764459,3.33573 -0.5523576,0.35915 -0.7659445,0.39645 -1.726491,0.30148 -1.1933517,-0.11798 -1.6417315,-0.34624 -2.7369753,-1.39328 -1.2435454,-1.18883 -1.9225095,-2.91169 -2.349625,-5.96218 -0.2929607,-2.09231 -0.3122023,-9.60097 -0.029611,-11.55988 0.4496039,-3.11685 1.2349243,-7.00912 1.645701,-8.15661 0.2314937,-0.64667 0.7675419,-2.19323 1.1912183,-3.43682 1.5549085,-4.56399 3.3699187,-7.83212 3.721591,-8.427432 0.1599891,-0.25949 0.336668,-0.551318 0.708551,-1.043184 0.362146,-0.52155 1.151703,-1.555872 1.862756,-2.320477 1.023057,-1.1001 1.544439,-1.515294 2.49865,-1.989734 1.056568,-0.525329 1.357975,-0.597019 2.434927,-0.579138 1.358587,0.02257 1.833961,0.210911 2.829137,1.120979 0.58317,0.533294 0.910995,0.849495 1.582445,2.647 l 0.34338,0.932759 0.109236,0.456452 0.103505,0.501289 0.06733,0.537915 0.02931,0.828721 -0.01514,0.75028 c -0.0059,0.29379 -0.03486,0.77717 -0.07698,1.26972 -0.03835,0.44825 -0.11584,0.98355 -0.194969,1.3097 -0.230252,0.41204 -0.544348,0.90563 -0.839664,1.32835 -0.284946,0.40788 -0.679594,0.69531 -0.990712,0.86054 -0.430566,0.22866 -0.527543,0.21922 -0.981467,-0.0955 -0.381503,-0.26454 -0.544815,-0.53259 -0.673245,-1.10502 -0.269016,-1.19907 -0.834757,-2.2784 -1.63715,-3.1234 -1.400824,-1.4752 -2.82736,-2.019431 -4.288596,-1.63612 -2.482393,0.65118 -4.020857,3.00771 -5.4847394,8.40119 -0.2147876,0.79136 -0.604032,2.01004 -0.8649916,2.70818 -0.2609594,0.69814 -0.4744705,1.37448 -0.4744705,1.503 0,0.12852 -0.060109,0.375 -0.1335778,0.54776 -0.2154464,0.50657 -0.8164882,3.8091 -0.9789313,5.37888 -0.2698136,2.60739 -0.3584555,7.55295 -0.1579256,8.81081 0.2316977,1.4533 0.8994526,3.20756 1.5527691,4.07927 0.8470208,1.13016 1.9782818,2.20056 2.5631072,2.42521 1.0053426,0.38618 2.5744379,-0.50252 3.6024969,-2.04037 0.988129,-1.47811 3.082496,-5.61201 4.067885,-8.02925 0.527229,-1.29333 1.115867,-2.73815 1.308091,-3.21071 0.396863,-0.97567 0.843651,-1.14331 1.218486,-0.45719 0.293095,0.5365 0.277735,0.83679 -0.09625,1.88127 -0.292611,0.81725 -0.313088,1.10195 -0.278073,3.86681 0.0397,3.13617 0.376788,10.71433 0.5793,13.02374 0.06543,0.74614 0.216291,1.88572 0.335244,2.53239 1.827485,9.93465 1.997698,11.29364 1.891406,15.10132 -0.100236,3.59076 -0.686986,5.82061 -1.06477,7.45341 -0.14019,0.60592 -0.505513,1.41394 -0.720035,2.01326 -0.389792,1.2942 -2.24858,3.61751 -3.369273,4.54524 -0.840854,0.69608 -1.526813,1.05075 -1.968373,0.9948 -0.116394,-0.0148 -0.842309,0.16563 -1.579476,0.093 z m 30.503934,-31.27377 c -0.255369,-0.083 -0.589314,-0.29587 -0.742104,-0.47315 -0.691269,-0.80207 -0.923882,-3.85851 -0.405228,-5.3245 0.469475,-1.32698 1.332007,-2.69788 2.919126,-4.63965 l 1.49793,-1.83265 -0.604609,-0.92585 c -0.332534,-0.50922 -0.654482,-0.92585 -0.715436,-0.92585 -0.06096,0 -0.189438,0.24332 -0.285517,0.5407 -0.590171,1.82674 -3.32573,2.99648 -4.179366,1.78712 -0.307697,-0.43591 -0.403771,-0.42648 -0.945022,0.0928 -0.857976,0.8231 -1.252971,0.99418 -1.92927,0.83562 -1.635768,-0.3835 -2.176542,-2.85677 -1.35476,-6.19608 l 0.211561,-0.85967 -0.945689,0.1046 c -0.649174,0.0718 -1.158546,0.0197 -1.624563,-0.16607 -0.501568,-0.19998 -0.691421,-0.21537 -0.726913,-0.0589 -0.02642,0.11647 -0.126438,0.6005 -0.222262,1.07563 -0.09582,0.47512 -0.229004,0.90727 -0.295956,0.96032 -0.06695,0.0531 -0.121732,0.84022 -0.121732,1.74925 0,1.49862 -0.03532,1.71814 -0.378705,2.35342 -0.437097,0.80866 -0.874982,1.13992 -1.867612,1.41286 -0.872443,0.23989 -2.117696,-0.0432 -2.486131,-0.56515 -0.328063,-0.46476 -0.410345,-0.4499 -1.02705,0.18551 -0.718036,0.7398 -1.255232,0.84692 -2.033593,0.40548 -0.807296,-0.45784 -1.377455,-1.39412 -1.377455,-2.26194 0,-0.75251 -0.253568,-1.0601 -0.463017,-0.56166 -0.26269,0.62515 -1.775187,2.46045 -1.962595,2.38147 -0.10146,-0.0428 -0.203894,-0.37072 -0.227641,-0.7288 -0.03935,-0.59327 0.0029,-0.67904 0.475345,-0.9665 0.923002,-0.56155 2.007549,-2.62874 2.68688,-5.12131 0.307085,-1.12674 0.509229,-1.47932 0.663016,-1.15645 0.03806,0.0799 -0.114377,1.04059 -0.338707,2.13495 -0.431353,2.1043 -0.503067,3.56981 -0.225711,4.61257 0.12551,0.47187 0.328716,0.73675 0.797905,1.04009 0.828613,0.53571 0.999764,0.51684 1.722703,-0.18997 l 0.610584,-0.59697 0.01789,-1.54453 c 0.02128,-1.83773 0.248281,-2.56738 1.187517,-3.8167 0.617864,-0.82186 0.68235,-0.86095 1.414026,-0.85716 0.840882,0.004 1.73828,0.44217 2.164082,1.05579 0.563175,0.81159 0.88017,0.26334 0.718598,-1.24283 -0.125781,-1.17253 -0.03485,-1.32545 0.589353,-0.99107 1.024673,0.54891 3.301842,0.24593 4.144856,-0.55148 0.350334,-0.33138 0.509302,-0.38964 0.651187,-0.23867 0.311119,0.33105 0.218711,0.74532 -0.460217,2.06321 -1.221729,2.37154 -1.447652,3.7312 -0.857978,5.16352 0.373132,0.90634 0.785244,1.24292 1.526561,1.24676 0.413632,0.002 0.600269,-0.12264 0.952327,-0.63673 0.240828,-0.35166 0.43787,-0.66615 0.43787,-0.69885 0,-0.0327 -0.06469,-0.49678 -0.14375,-1.03127 -0.220912,-1.49349 0.04074,-2.69013 0.836241,-3.82452 0.825756,-1.17753 1.525681,-1.59751 2.293672,-1.37627 0.310786,0.0895 0.658563,0.14046 0.772829,0.11318 0.139529,-0.0333 0.337261,0.36624 0.60205,1.21659 0.216857,0.69641 0.552982,1.61532 0.746948,2.04204 0.380262,0.83659 1.786181,2.9323 1.967148,2.9323 0.236087,0 1.173463,-1.21778 1.941413,-2.52215 1.096812,-1.86295 1.377298,-2.50244 1.491664,-3.4009 0.05374,-0.42229 0.16123,-0.81812 0.238838,-0.87961 0.302619,-0.2398 0.374281,0.26005 0.239893,1.67329 -0.150155,1.5791 0.03527,3.0471 0.499611,3.95573 0.320888,0.62788 1.221693,0.90769 1.764211,0.548 0.229139,-0.15192 0.456132,-0.35819 0.504432,-0.45839 0.04832,-0.10019 0.1793,-0.18216 0.291118,-0.18216 0.378502,0 0.20608,0.52718 -0.323248,0.98834 -0.602202,0.52464 -1.387709,0.60196 -1.998881,0.19676 -0.45559,-0.30206 -1.071286,-1.77685 -1.241517,-2.97386 l -0.112902,-0.79388 -0.485837,0.97477 c -0.267214,0.53612 -0.924436,1.55926 -1.460496,2.27365 -0.663465,0.88418 -0.938262,1.37508 -0.860672,1.53753 0.06268,0.13125 0.333082,0.60492 0.600878,1.05262 0.267803,0.44769 0.682742,1.34307 0.922093,1.98973 0.392479,1.06038 0.434862,1.34438 0.43193,2.89417 -0.0052,2.86063 -0.590013,4.29899 -2.247425,5.52954 -0.621787,0.46164 -0.853147,0.52518 -2.045735,0.5618 -0.739562,0.0227 -1.553596,-0.0266 -1.808966,-0.10953 z m 3.869682,-1.14313 c 0.553238,-0.47404 0.795183,-0.86331 1.249421,-2.01021 0.516206,-1.30338 0.562482,-1.53787 0.553278,-2.80372 -0.0058,-0.80034 -0.114033,-1.78091 -0.257257,-2.33119 -0.290682,-1.1168 -1.712933,-3.55153 -1.962579,-3.35973 -0.465826,0.35791 -2.301372,2.6338 -2.911519,3.60998 -1.312217,2.09945 -1.608115,2.86872 -1.593059,4.14159 0.02862,2.42101 0.830344,3.30545 3.017059,3.32837 1.147862,0.012 1.258351,-0.0213 1.904656,-0.57509 z M 31.098051,129.29202 c 0.876201,-0.50996 1.200003,-1.27178 1.123507,-2.6433 -0.03372,-0.60457 -0.167646,-1.37786 -0.297612,-1.71841 -0.291298,-0.76328 -1.078728,-1.43317 -1.684652,-1.43317 -0.769646,0 -1.658385,0.71084 -2.035406,1.62797 -0.287242,0.69874 -0.321628,0.96764 -0.242884,1.8993 0.125709,1.48732 0.314418,1.89291 1.058952,2.27597 0.820959,0.42238 1.341583,0.42029 2.078095,-0.008 z m 12.435966,-1.04903 c 0.33943,-0.27228 0.751116,-0.79414 0.914859,-1.1597 l 0.297711,-0.66466 -0.529001,-1.32508 c -0.290944,-0.7288 -0.528039,-1.41959 -0.526873,-1.53511 0.0012,-0.11551 -0.200542,-0.42866 -0.44824,-0.69588 -0.379201,-0.40909 -0.536806,-0.46813 -0.997526,-0.37368 -0.300946,0.0617 -0.699809,0.24041 -0.886367,0.39713 -0.490039,0.41167 -1.036656,1.9759 -1.130095,3.23397 -0.06707,0.903 -0.03124,1.18578 0.213255,1.68342 0.596291,1.21366 1.896792,1.39853 3.092277,0.43959 z m 34.458707,5.8701 c -0.17592,-0.62529 -0.186855,-2.12195 -0.01743,-2.38372 0.114191,-0.17641 0.443338,-0.21262 1.271239,-0.13987 l 1.117155,0.0982 -0.06445,-0.61323 c -0.03544,-0.33728 -0.195301,-2.44469 -0.355232,-4.68315 -0.914025,-12.7929 -1.603959,-19.40248 -2.074233,-19.87112 -0.321569,-0.32045 -3.986419,-0.1602 -5.607172,0.24518 -1.896157,0.47428 -4.783584,1.35167 -5.026305,1.52733 -0.351705,0.25454 -0.855274,-0.27638 -0.801525,-0.84504 0.038,-0.40223 0.164297,-0.50027 1.030926,-0.80033 3.929633,-1.36061 5.144115,-1.62607 7.936052,-1.73466 1.805591,-0.0702 2.292635,-0.14146 2.292635,-0.33533 0,-0.90439 -0.676674,-5.296339 -1.152176,-7.478205 -0.607908,-2.789414 -0.633311,-3.546081 -0.142443,-4.242745 0.147672,-0.209578 0.633083,-1.26039 1.078694,-2.335136 0.914043,-2.204532 1.24403,-2.463074 1.313313,-1.028962 0.04069,0.841908 1.684033,14.497548 1.812021,15.057138 0.06024,0.26339 0.242574,0.31666 1.08576,0.31723 1.552075,0.001 7.59169,1.0909 9.580266,1.72877 1.227137,0.39362 3.71811,1.85548 4.533257,2.66039 0.875705,0.8647 3.054115,3.69806 3.054115,3.97233 0,0.10765 0.159965,0.46462 0.355482,0.79327 1.156777,1.94444 1.819557,4.71801 1.738007,7.2731 -0.0675,2.11437 -0.59631,3.47502 -2.189802,5.63427 -2.499163,3.38648 -4.413191,4.96057 -8.730769,6.51118 -1.162236,0.4174 -2.47137,0.6377 -3.269322,0.79851 -1.418929,0.28597 -2.231954,0.29829 -4.929519,0.28664 -3.701025,-0.016 -3.727949,-0.0188 -3.838567,-0.41202 z m 12.346503,-2.72666 c 1.396761,-0.45345 2.875636,-1.0227 4.458838,-2.30459 1.906107,-1.54332 2.883744,-2.71159 3.689542,-4.40894 1.223668,-2.57756 1.312176,-5.09459 0.273509,-7.77807 -1.122354,-2.8997 -2.167031,-4.58976 -3.854293,-6.23542 -1.18511,-1.15589 -3.218219,-2.24327 -5.431789,-2.90512 -1.972353,-0.58972 -5.151681,-1.07947 -7.007611,-1.07947 h -1.686225 l 0.08246,1.22097 c 0.04535,0.67154 0.334044,5.94208 0.641536,11.71232 0.307493,5.77024 0.595808,10.91426 0.640709,11.43117 l 0.08163,0.93982 0.590416,0.0687 c 0.324734,0.0378 1.529196,0.0829 2.676586,0.10027 2.071429,0.0314 3.152573,-0.0587 4.844696,-0.7616 z m 3.412448,-6.85695 c -0.62286,-0.49154 -1.211754,-1.16419 -1.532799,-2.13023 -0.272239,-0.81918 -0.465343,-1.76659 -0.588813,-3.07494 -0.04144,-0.43904 -0.02775,-1.5331 0.05927,-2.6586 0.111089,-1.43659 0.524279,-3.06118 1.116688,-3.92621 0.494662,-0.72232 0.686997,-0.78022 1.020795,-0.30733 0.340864,0.4829 0.159914,0.62808 -0.499611,1.83354 l -0.457694,1.17219 -0.188423,0.95679 -0.05771,1.33719 c -0.01236,0.52438 0.01428,1.24097 0.04162,1.57176 0.07945,0.96127 0.09803,0.96886 0.237999,1.60515 0.12305,0.55937 0.498666,1.54559 0.802183,1.94508 0.993831,1.30808 1.086273,2.49619 0.04646,1.67561 z m -37.030983,3.85727 c -0.714848,-0.21523 -1.353603,-0.78084 -1.798632,-1.59266 -0.356438,-0.65022 -0.409937,-0.90135 -0.383491,-1.80019 0.06062,-2.06056 0.417049,-2.94989 1.552163,-3.87283 0.738467,-0.60044 1.692992,-0.68287 2.627693,-0.22694 0.972299,0.47428 1.023442,0.47611 1.470143,0.0527 0.627098,-0.59442 0.857263,-0.25993 0.506799,0.73651 -0.141331,0.40183 -0.343283,0.82244 -0.448788,0.9347 -0.142601,0.15174 -0.169257,0.48796 -0.103873,1.31037 0.125557,1.57932 -0.117863,2.56806 -0.85644,3.47871 -0.403772,0.49785 -0.784786,0.78567 -1.15016,0.86885 -0.300498,0.0684 -0.6416,0.15152 -0.757994,0.1847 -0.116394,0.0332 -0.412234,-8e-5 -0.65742,-0.0739 z m 2.017126,-1.19569 c 0.883266,-0.84548 1.172374,-1.92095 0.973488,-3.62134 -0.165498,-1.41498 -1.345595,-2.59845 -1.345595,-1.34945 0,0.74799 -0.271603,0.88466 -0.625926,0.31495 -0.163376,-0.2627 -0.487423,-0.52645 -0.720105,-0.58611 -0.354457,-0.0909 -0.527148,0.009 -1.064997,0.61598 -0.751361,0.84795 -1.047487,1.83379 -0.896766,2.98544 0.115776,0.88462 0.321663,1.30494 0.863983,1.76383 0.564949,0.47803 2.265507,0.40357 2.815918,-0.1233 z m 53.250582,0.71337 c -0.31794,-0.5182 -0.3898,-1.41461 -0.12993,-1.62053 0.09,-0.0713 0.24525,0.0249 0.34791,0.21543 0.35143,0.65237 0.48918,0.7964 0.76169,0.7964 0.65246,0 0.92437,-1.63403 0.54328,-3.2648 -0.17477,-0.74792 -1.39119,-2.52353 -1.72879,-2.52353 -0.21499,0 -0.44496,0.5496 -0.64335,1.53753 -0.28332,1.41078 -1.71515,3.29848 -2.80622,3.69967 -0.25206,0.0927 -0.57417,0.0604 -0.88042,-0.0881 -0.26562,-0.12885 -0.76992,-0.3763 -1.12067,-0.54989 l -0.63773,-0.31564 -1.16819,0.8639 c -1.08212,0.80023 -1.45853,0.94533 -1.23169,0.47476 0.0504,-0.10459 0.53834,-0.5304 1.08427,-0.94622 0.90466,-0.68906 0.98476,-0.79748 0.90404,-1.22372 -0.41563,-2.19496 -0.37036,-2.91849 0.29262,-4.67624 0.65423,-1.73457 2.03246,-2.05215 2.43771,-0.56171 0.38326,1.40956 0.0721,2.63414 -1.15534,4.54736 -0.61734,0.96223 -0.59021,1.1448 0.24566,1.65334 0.69157,0.42075 1.20965,0.35538 1.94923,-0.24597 1.19528,-0.97185 2.02161,-3.02648 1.9144,-4.76004 -0.0349,-0.56324 0.007,-0.77142 0.16477,-0.81059 0.11639,-0.029 0.73137,0.56119 1.36662,1.31153 1.27542,1.50653 1.73725,2.61572 1.73725,4.17242 0,1.48119 0.57015,1.25126 2.34499,-0.9457 0.84945,-1.05147 1.25082,-1.71114 1.55195,-2.55069 0.2684,-0.74834 0.47795,-1.11409 0.6178,-1.07838 0.22964,0.0586 0.23089,0.20988 0.0108,1.30638 -0.0799,0.39794 -0.14672,1.09908 -0.14857,1.55808 -0.006,1.5666 1.02028,2.25188 2.53617,1.69296 1.37597,-0.50733 1.45348,-0.52117 1.3832,-0.24681 -0.13013,0.50795 -1.95217,1.02575 -2.84974,0.80987 -0.69183,-0.1664 -1.30378,-0.87382 -1.41532,-1.63611 -0.0505,-0.34528 -0.13988,-0.66583 -0.19857,-0.71233 -0.0587,-0.0465 -0.32606,0.17898 -0.59415,0.50109 -0.84411,1.01419 -2.30728,2.41238 -2.67426,2.55548 -0.194,0.0756 -0.62112,0.45251 -0.94917,0.83748 -0.749,0.87895 -1.41133,0.95837 -1.8623,0.22333 z m -5.29324,-4.15983 c 0.74492,-1.16551 1.05044,-2.00564 1.05044,-2.8885 0,-1.7912 -0.96957,-1.99178 -1.75497,-0.36307 -0.66642,1.38198 -0.68008,4.08942 -0.0206,4.08942 0.10432,0 0.43064,-0.37703 0.72517,-0.83785 z m 16.95235,2.65935 c -0.55843,-0.66816 -0.59354,-0.76876 -0.58399,-1.67319 0.0117,-1.10961 0.37882,-2.14981 1.13984,-3.22978 0.92123,-1.30735 2.11637,-1.33463 3.2646,-0.0745 0.32467,0.3563 0.64968,0.60078 0.72225,0.54328 0.0726,-0.0575 0.23515,-0.69378 0.3613,-1.41397 0.50877,-2.90453 2.33209,-8.81104 2.33209,-7.55462 0,0.10867 0.17477,1.26314 -0.0156,1.74464 -0.54325,1.37449 -1.78876,4.26879 -2.0424,5.99986 -0.14185,0.96812 -0.20576,2.08184 -0.16575,2.8882 0.10054,2.0258 0.60282,2.45924 1.90983,1.64804 0.50608,-0.3141 0.60803,-0.45711 0.54807,-0.76876 -0.0405,-0.21059 -0.14485,-0.74596 -0.23186,-1.18972 -0.21909,-1.11737 -0.0633,-2.07184 0.44452,-2.72287 0.81651,-1.04684 1.66941,-0.80233 1.66941,0.47857 0,0.6507 -0.54197,2.65359 -0.91619,3.38584 -0.2192,0.4289 -0.21645,0.46384 0.0508,0.64721 1.56222,1.07193 3.68205,-2.10195 2.77004,-4.1474 -0.1109,-0.24872 -0.20388,-0.60416 -0.20663,-0.78986 -0.004,-0.26594 0.0624,-0.3122 0.31244,-0.21781 0.81599,0.30805 2.26857,0.47963 2.64314,0.31222 0.65115,-0.29102 0.76941,0.0912 0.27556,0.89062 -1.35251,2.18942 -1.33868,4.79685 0.0234,4.41329 0.59343,-0.1671 2.15934,-2.13376 2.4709,-3.10324 0.22558,-0.70195 0.82655,-1.48688 1.14746,-1.49872 0.27177,-0.01 0.21693,0.24817 -0.31744,1.4946 -0.62842,1.46577 -0.63102,1.97685 -0.0141,2.76779 0.55861,0.71619 0.68138,0.73522 1.66194,0.25753 0.40359,-0.19661 0.75982,-0.32413 0.79161,-0.28336 0.24613,0.31557 -0.88952,0.8579 -1.79644,0.8579 -0.38408,0 -0.59341,-0.14209 -0.95541,-0.64853 -0.25495,-0.35669 -0.46356,-0.80771 -0.46356,-1.00228 0,-0.64579 -0.30173,-0.60644 -0.89495,0.11672 -1.34914,1.64469 -2.0044,1.90245 -2.638,1.03776 -0.44003,-0.60052 -0.4129,-1.85529 0.0735,-3.39917 0.19166,-0.60834 0.29658,-1.17259 0.23316,-1.2539 -0.0634,-0.0813 -0.49036,-0.16472 -0.94876,-0.18536 l -0.83346,-0.0376 -0.0705,1.28163 c -0.0557,1.01263 -0.16052,1.46822 -0.49919,2.17062 -0.64819,1.34433 -1.89801,2.00098 -2.75964,1.4499 -0.57688,-0.36898 -0.67334,-0.36433 -1.41686,0.0682 -0.79668,0.46348 -1.53672,0.46495 -1.99382,0.004 -0.1973,-0.19897 -0.386,-0.36177 -0.41933,-0.36177 -0.0333,0 -0.31774,0.31363 -0.63203,0.69695 -0.64421,0.78569 -1.42058,1.1119 -2.64631,1.1119 -0.7239,0 -0.83886,-0.059 -1.38365,-0.71089 z m 2.99703,-0.21058 c 0.89011,-0.6414 1.22721,-1.88655 0.85268,-3.14956 -0.11202,-0.37773 -0.22002,-0.46479 -0.51953,-0.41876 -0.31913,0.049 -0.3957,-0.0285 -0.49097,-0.49749 -0.21213,-1.04416 -1.05843,-1.23694 -1.86394,-0.42459 -0.47136,0.47537 -1.2136,2.10128 -1.21538,2.66236 -0.002,0.57696 0.34526,1.37974 0.79085,1.82912 0.51552,0.5199 1.72402,0.51936 2.44629,-0.001 z m 5.57699,-3.05198 c 0.23955,-0.60609 0.35509,-1.19466 0.35509,-1.80886 0,-0.83235 -0.0282,-0.91044 -0.32812,-0.91044 -0.18046,0 -0.47677,0.20287 -0.65846,0.45083 -0.58922,0.80412 -0.53542,3.16688 0.0721,3.16688 0.11235,0 0.36407,-0.40429 0.55937,-0.89841 z m -121.260498,1.4314 c -1.1262537,-0.16869 -2.5846917,-0.6002 -3.2449622,-0.96009 -0.6471202,-0.35273 -1.4794052,-1.49031 -1.6726372,-2.28618 -0.2428486,-1.00025 0.081869,-2.36888 0.8241944,-3.47386 0.5288843,-0.78728 1.6242561,-1.27889 2.6587087,-1.19325 l 0.6587263,0.0546 0.197545,1.22097 c 0.108647,0.67154 0.238273,1.22098 0.288053,1.22098 0.04978,0 0.265768,-0.45817 0.479984,-1.01816 l 0.389478,-1.01816 0.634914,0.11157 c 1.073501,0.18865 2.421025,1.5903 2.962651,3.08164 0.725474,1.99757 0.244265,3.40623 -1.354949,3.96637 -1.089945,0.38177 -1.764526,0.45197 -2.821706,0.29363 z m 107.871388,-7.10204 c -0.13966,-0.13093 -0.23116,-0.38685 -0.20332,-0.5687 0.0774,-0.50539 0.73906,-1.06208 1.0918,-0.91854 0.4165,0.16948 0.40755,1.06476 -0.0145,1.44372 -0.38261,0.3436 -0.54531,0.3517 -0.87404,0.0435 z m 24.00816,0.0427 c -0.35754,-0.267 -0.30311,-0.80699 0.12485,-1.23858 0.46532,-0.46929 0.84486,-0.47848 1.03414,-0.025 0.43321,1.0378 -0.33694,1.87746 -1.15899,1.26359 z M 24.254098,117.30182 c -0.140672,-0.21997 -0.221322,-0.72155 -0.188376,-1.17158 0.02384,-0.3259 0.647761,-0.79794 0.894311,-0.67664 0.246025,0.12104 0.53279,0.84924 0.53279,1.35293 0,0.60778 -0.929198,0.97931 -1.238725,0.49529 z m 26.58706,-0.25625 c -0.0517,-0.0663 -0.09406,-0.39004 -0.09406,-0.71937 0,-1.08245 1.019531,-1.49901 1.215736,-0.49673 0.04651,0.23774 0.04477,0.63576 -0.0041,0.88448 -0.07215,0.36856 -0.175016,0.45221 -0.556123,0.45221 -0.257176,0 -0.509923,-0.0543 -0.561655,-0.12059 z m -37.622762,-1.33616 c -1.126249,-0.16869 -2.584692,-0.60019 -3.2449628,-0.96008 -0.6332996,-0.3452 -1.4690061,-1.47789 -1.6749162,-2.27011 -0.1389987,-0.53482 -0.3449835,-0.87476 -0.025729,-1.90779 0.1938219,-0.62717 0.3274259,-1.13653 0.6082931,-1.42845 0.4950277,-0.51451 0.8554715,-0.88399 1.4559099,-1.10778 0.433394,-0.16153 1.084414,-0.26915 1.44671,-0.23916 l 0.658726,0.0545 0.197546,1.22097 c 0.108653,0.67154 0.238272,1.22098 0.288052,1.22098 0.04978,0 0.265774,-0.45818 0.479991,-1.01816 l 0.389477,-1.01816 0.634909,0.11158 c 1.073501,0.18864 2.421024,1.59029 2.962651,3.08164 0.72548,1.99756 0.244265,3.40621 -1.35495,3.96636 -1.089939,0.38177 -1.764519,0.45196 -2.821705,0.29363 z"
       id="path91"
       inkscape:connector-curvature="0"
       sodipodi:nodetypes="csccsssssssccsssssscsscssssscccsccccccscscssccsccsccccccsscsccsccccscsscscscccsscsscccccccscccssccccccccccscccccsscccscsscccscccscccccccscsccscscccccccscccccscccccccccccccscccccsscsscccsccccccscccccccsccccccsscscccssscscssccccccsccsccsccccccsssccccccssccccccccccccccccccscccccccccscscccccccscscccccccsscccccccccccccccccsccccccccsccssccssccccccccccccccscsccccccccsccssscccccccccccccscsccccsccssccsscccccccccccccccccscccccsccccssscccssccsscccc" />
  </g>
</svg>
